<svg xmlns="http://www.w3.org/2000/svg" xmlns:xlink="http://www.w3.org/1999/xlink" width="1920" zoomAndPan="magnify" viewBox="0 0 1440 809.999993" height="1080" preserveAspectRatio="xMidYMid meet" version="1.0"><defs><clipPath id="bc27ebd601"><path d="M 574.199219 243 L 865.949219 243 L 865.949219 567 L 574.199219 567 Z M 574.199219 243 " clip-rule="nonzero"/></clipPath><clipPath id="e24e8bb5a0"><path d="M 574.199219 475 L 586 475 L 586 486 L 574.199219 486 Z M 574.199219 475 " clip-rule="nonzero"/></clipPath></defs><path fill="#3d167b" d="M 612.019531 399.566406 L 633.628906 399.566406 C 634.339844 399.566406 635.042969 399.496094 635.738281 399.359375 C 636.433594 399.21875 637.109375 399.015625 637.765625 398.746094 C 638.421875 398.472656 639.042969 398.140625 639.632812 397.746094 C 640.222656 397.351562 640.769531 396.90625 641.269531 396.402344 C 641.773438 395.902344 642.222656 395.355469 642.613281 394.765625 C 643.007812 394.175781 643.34375 393.554688 643.613281 392.898438 C 643.886719 392.246094 644.089844 391.570312 644.226562 390.875 C 644.367188 390.179688 644.4375 389.476562 644.4375 388.765625 L 644.4375 367.167969 C 644.4375 366.457031 644.367188 365.753906 644.226562 365.058594 C 644.089844 364.363281 643.886719 363.6875 643.613281 363.035156 C 643.34375 362.378906 643.007812 361.757812 642.613281 361.167969 C 642.222656 360.578125 641.773438 360.03125 641.269531 359.53125 C 640.769531 359.027344 640.222656 358.582031 639.632812 358.1875 C 639.042969 357.792969 638.421875 357.460938 637.765625 357.1875 C 637.109375 356.917969 636.433594 356.710938 635.738281 356.574219 C 635.042969 356.4375 634.339844 356.367188 633.628906 356.367188 L 612.019531 356.367188 C 611.308594 356.367188 610.605469 356.4375 609.910156 356.574219 C 609.214844 356.710938 608.539062 356.917969 607.882812 357.1875 C 607.230469 357.460938 606.605469 357.792969 606.015625 358.1875 C 605.425781 358.582031 604.878906 359.027344 604.378906 359.53125 C 603.878906 360.03125 603.429688 360.578125 603.035156 361.167969 C 602.640625 361.757812 602.308594 362.378906 602.035156 363.035156 C 601.765625 363.6875 601.558594 364.363281 601.421875 365.058594 C 601.28125 365.753906 601.214844 366.457031 601.214844 367.167969 L 601.214844 388.765625 C 601.214844 389.476562 601.28125 390.179688 601.421875 390.875 C 601.558594 391.570312 601.765625 392.246094 602.035156 392.898438 C 602.308594 393.554688 602.640625 394.175781 603.035156 394.765625 C 603.429688 395.355469 603.878906 395.902344 604.378906 396.402344 C 604.878906 396.90625 605.425781 397.351562 606.015625 397.746094 C 606.605469 398.140625 607.230469 398.472656 607.882812 398.746094 C 608.539062 399.015625 609.214844 399.21875 609.910156 399.359375 C 610.605469 399.496094 611.308594 399.566406 612.019531 399.566406 Z M 612.019531 367.167969 L 633.628906 367.167969 L 633.628906 388.765625 L 612.019531 388.765625 Z M 612.019531 367.167969 " fill-opacity="1" fill-rule="nonzero"/><path fill="#3d167b" d="M 676.851562 399.566406 L 698.464844 399.566406 C 699.171875 399.566406 699.875 399.496094 700.570312 399.359375 C 701.269531 399.21875 701.945312 399.015625 702.597656 398.746094 C 703.253906 398.472656 703.878906 398.140625 704.46875 397.746094 C 705.058594 397.351562 705.601562 396.90625 706.105469 396.402344 C 706.605469 395.902344 707.054688 395.355469 707.449219 394.765625 C 707.84375 394.175781 708.175781 393.554688 708.445312 392.898438 C 708.71875 392.246094 708.921875 391.570312 709.0625 390.875 C 709.199219 390.179688 709.269531 389.476562 709.269531 388.765625 L 709.269531 367.167969 C 709.269531 366.457031 709.199219 365.753906 709.0625 365.058594 C 708.921875 364.363281 708.71875 363.6875 708.445312 363.035156 C 708.175781 362.378906 707.84375 361.757812 707.449219 361.167969 C 707.054688 360.578125 706.605469 360.03125 706.105469 359.53125 C 705.601562 359.027344 705.058594 358.582031 704.46875 358.1875 C 703.878906 357.792969 703.253906 357.460938 702.597656 357.1875 C 701.945312 356.917969 701.269531 356.710938 700.570312 356.574219 C 699.875 356.4375 699.171875 356.367188 698.464844 356.367188 L 676.851562 356.367188 C 676.144531 356.367188 675.441406 356.4375 674.746094 356.574219 C 674.046875 356.710938 673.375 356.917969 672.71875 357.1875 C 672.0625 357.460938 671.4375 357.792969 670.847656 358.1875 C 670.257812 358.582031 669.714844 359.027344 669.210938 359.53125 C 668.710938 360.03125 668.261719 360.578125 667.867188 361.167969 C 667.472656 361.757812 667.140625 362.378906 666.871094 363.035156 C 666.597656 363.6875 666.394531 364.363281 666.253906 365.058594 C 666.117188 365.753906 666.046875 366.457031 666.046875 367.167969 L 666.046875 388.765625 C 666.046875 389.476562 666.117188 390.179688 666.253906 390.875 C 666.394531 391.570312 666.597656 392.246094 666.871094 392.898438 C 667.140625 393.554688 667.472656 394.175781 667.867188 394.765625 C 668.261719 395.355469 668.710938 395.902344 669.210938 396.402344 C 669.714844 396.90625 670.257812 397.351562 670.847656 397.746094 C 671.4375 398.140625 672.0625 398.472656 672.71875 398.746094 C 673.375 399.015625 674.046875 399.21875 674.746094 399.359375 C 675.441406 399.496094 676.144531 399.566406 676.851562 399.566406 Z M 676.851562 367.167969 L 698.464844 367.167969 L 698.464844 388.765625 L 676.851562 388.765625 Z M 676.851562 367.167969 " fill-opacity="1" fill-rule="nonzero"/><path fill="#3d167b" d="M 741.6875 399.566406 L 763.296875 399.566406 C 764.007812 399.566406 764.710938 399.496094 765.40625 399.359375 C 766.101562 399.21875 766.777344 399.015625 767.433594 398.746094 C 768.085938 398.472656 768.710938 398.140625 769.300781 397.746094 C 769.890625 397.351562 770.4375 396.90625 770.9375 396.402344 C 771.441406 395.902344 771.886719 395.355469 772.28125 394.765625 C 772.675781 394.175781 773.007812 393.554688 773.28125 392.898438 C 773.550781 392.246094 773.757812 391.570312 773.894531 390.875 C 774.035156 390.179688 774.101562 389.476562 774.101562 388.765625 L 774.101562 367.167969 C 774.101562 366.457031 774.035156 365.753906 773.894531 365.058594 C 773.757812 364.363281 773.550781 363.6875 773.28125 363.035156 C 773.007812 362.378906 772.675781 361.757812 772.28125 361.167969 C 771.886719 360.578125 771.441406 360.03125 770.9375 359.53125 C 770.4375 359.027344 769.890625 358.582031 769.300781 358.1875 C 768.710938 357.792969 768.085938 357.460938 767.433594 357.1875 C 766.777344 356.917969 766.101562 356.710938 765.40625 356.574219 C 764.710938 356.4375 764.007812 356.367188 763.296875 356.367188 L 741.6875 356.367188 C 740.976562 356.367188 740.273438 356.4375 739.578125 356.574219 C 738.882812 356.710938 738.207031 356.917969 737.550781 357.1875 C 736.894531 357.460938 736.273438 357.792969 735.683594 358.1875 C 735.09375 358.582031 734.546875 359.027344 734.046875 359.53125 C 733.542969 360.03125 733.097656 360.578125 732.703125 361.167969 C 732.308594 361.757812 731.972656 362.378906 731.703125 363.035156 C 731.429688 363.6875 731.226562 364.363281 731.089844 365.058594 C 730.949219 365.753906 730.878906 366.457031 730.878906 367.167969 L 730.878906 388.765625 C 730.878906 389.476562 730.949219 390.179688 731.089844 390.875 C 731.226562 391.570312 731.429688 392.246094 731.703125 392.898438 C 731.972656 393.554688 732.308594 394.175781 732.703125 394.765625 C 733.097656 395.355469 733.542969 395.902344 734.046875 396.402344 C 734.546875 396.90625 735.09375 397.351562 735.683594 397.746094 C 736.273438 398.140625 736.894531 398.472656 737.550781 398.746094 C 738.207031 399.015625 738.882812 399.21875 739.578125 399.359375 C 740.273438 399.496094 740.976562 399.566406 741.6875 399.566406 Z M 741.6875 367.167969 L 763.296875 367.167969 L 763.296875 388.765625 L 741.6875 388.765625 Z M 741.6875 367.167969 " fill-opacity="1" fill-rule="nonzero"/><path fill="#3d167b" d="M 806.519531 399.566406 L 828.128906 399.566406 C 828.839844 399.566406 829.542969 399.496094 830.238281 399.359375 C 830.933594 399.21875 831.609375 399.015625 832.265625 398.746094 C 832.921875 398.472656 833.542969 398.140625 834.132812 397.746094 C 834.722656 397.351562 835.269531 396.90625 835.769531 396.402344 C 836.273438 395.902344 836.722656 395.355469 837.113281 394.765625 C 837.507812 394.175781 837.84375 393.554688 838.113281 392.898438 C 838.386719 392.246094 838.589844 391.570312 838.726562 390.875 C 838.867188 390.179688 838.9375 389.476562 838.9375 388.765625 L 838.9375 367.167969 C 838.9375 366.457031 838.867188 365.753906 838.726562 365.058594 C 838.589844 364.363281 838.386719 363.6875 838.113281 363.035156 C 837.84375 362.378906 837.507812 361.757812 837.113281 361.167969 C 836.722656 360.578125 836.273438 360.03125 835.769531 359.53125 C 835.269531 359.027344 834.722656 358.582031 834.132812 358.1875 C 833.542969 357.792969 832.921875 357.460938 832.265625 357.1875 C 831.609375 356.917969 830.933594 356.710938 830.238281 356.574219 C 829.542969 356.4375 828.839844 356.367188 828.128906 356.367188 L 806.519531 356.367188 C 805.808594 356.367188 805.105469 356.4375 804.410156 356.574219 C 803.714844 356.710938 803.039062 356.917969 802.382812 357.1875 C 801.730469 357.460938 801.105469 357.792969 800.515625 358.1875 C 799.925781 358.582031 799.378906 359.027344 798.878906 359.53125 C 798.378906 360.03125 797.929688 360.578125 797.535156 361.167969 C 797.140625 361.757812 796.808594 362.378906 796.535156 363.035156 C 796.265625 363.6875 796.058594 364.363281 795.921875 365.058594 C 795.78125 365.753906 795.714844 366.457031 795.714844 367.167969 L 795.714844 388.765625 C 795.714844 389.476562 795.78125 390.179688 795.921875 390.875 C 796.058594 391.570312 796.265625 392.246094 796.535156 392.898438 C 796.808594 393.554688 797.140625 394.175781 797.535156 394.765625 C 797.929688 395.355469 798.378906 395.902344 798.878906 396.402344 C 799.378906 396.90625 799.925781 397.351562 800.515625 397.746094 C 801.105469 398.140625 801.730469 398.472656 802.382812 398.746094 C 803.039062 399.015625 803.714844 399.21875 804.410156 399.359375 C 805.105469 399.496094 805.808594 399.566406 806.519531 399.566406 Z M 806.519531 367.167969 L 828.128906 367.167969 L 828.128906 388.765625 L 806.519531 388.765625 Z M 806.519531 367.167969 " fill-opacity="1" fill-rule="nonzero"/><path fill="#3d167b" d="M 601.214844 448.164062 C 601.214844 448.875 601.28125 449.578125 601.421875 450.273438 C 601.558594 450.96875 601.765625 451.644531 602.035156 452.300781 C 602.308594 452.953125 602.640625 453.578125 603.035156 454.167969 C 603.429688 454.753906 603.878906 455.300781 604.378906 455.800781 C 604.878906 456.304688 605.425781 456.75 606.015625 457.144531 C 606.605469 457.539062 607.230469 457.871094 607.882812 458.144531 C 608.539062 458.414062 609.214844 458.621094 609.910156 458.757812 C 610.605469 458.898438 611.308594 458.964844 612.019531 458.964844 L 633.628906 458.964844 C 634.339844 458.964844 635.042969 458.898438 635.738281 458.757812 C 636.433594 458.621094 637.109375 458.414062 637.765625 458.144531 C 638.421875 457.871094 639.042969 457.539062 639.632812 457.144531 C 640.222656 456.75 640.769531 456.304688 641.269531 455.800781 C 641.773438 455.300781 642.222656 454.753906 642.613281 454.167969 C 643.007812 453.578125 643.34375 452.953125 643.613281 452.300781 C 643.886719 451.644531 644.089844 450.96875 644.226562 450.273438 C 644.367188 449.578125 644.4375 448.875 644.4375 448.164062 L 644.4375 426.566406 C 644.4375 425.855469 644.367188 425.15625 644.226562 424.460938 C 644.089844 423.761719 643.886719 423.089844 643.613281 422.433594 C 643.34375 421.777344 643.007812 421.15625 642.613281 420.566406 C 642.222656 419.976562 641.773438 419.429688 641.269531 418.929688 C 640.769531 418.429688 640.222656 417.980469 639.632812 417.585938 C 639.042969 417.191406 638.421875 416.859375 637.765625 416.589844 C 637.109375 416.316406 636.433594 416.113281 635.738281 415.972656 C 635.042969 415.835938 634.339844 415.765625 633.628906 415.765625 L 612.019531 415.765625 C 611.308594 415.765625 610.605469 415.835938 609.910156 415.972656 C 609.214844 416.113281 608.539062 416.316406 607.882812 416.589844 C 607.230469 416.859375 606.605469 417.191406 606.015625 417.585938 C 605.425781 417.980469 604.878906 418.429688 604.378906 418.929688 C 603.878906 419.429688 603.429688 419.976562 603.035156 420.566406 C 602.640625 421.15625 602.308594 421.777344 602.035156 422.433594 C 601.765625 423.089844 601.558594 423.761719 601.421875 424.460938 C 601.28125 425.15625 601.214844 425.855469 601.214844 426.566406 Z M 612.019531 426.566406 L 633.628906 426.566406 L 633.628906 448.164062 L 612.019531 448.164062 Z M 612.019531 426.566406 " fill-opacity="1" fill-rule="nonzero"/><path fill="#3d167b" d="M 666.046875 445.464844 C 666.046875 446.175781 666.117188 446.878906 666.253906 447.574219 C 666.394531 448.269531 666.597656 448.945312 666.871094 449.597656 C 667.140625 450.253906 667.472656 450.875 667.867188 451.464844 C 668.261719 452.054688 668.710938 452.601562 669.210938 453.101562 C 669.714844 453.605469 670.257812 454.050781 670.847656 454.445312 C 671.4375 454.839844 672.0625 455.171875 672.71875 455.445312 C 673.375 455.714844 674.046875 455.921875 674.746094 456.058594 C 675.441406 456.195312 676.144531 456.265625 676.851562 456.265625 L 698.464844 456.265625 C 699.171875 456.265625 699.875 456.195312 700.570312 456.058594 C 701.269531 455.921875 701.945312 455.714844 702.597656 455.445312 C 703.253906 455.171875 703.878906 454.839844 704.46875 454.445312 C 705.058594 454.050781 705.601562 453.605469 706.105469 453.101562 C 706.605469 452.601562 707.054688 452.054688 707.449219 451.464844 C 707.84375 450.875 708.175781 450.253906 708.445312 449.597656 C 708.71875 448.945312 708.921875 448.269531 709.0625 447.574219 C 709.199219 446.878906 709.269531 446.175781 709.269531 445.464844 L 709.269531 423.867188 C 709.269531 423.15625 709.199219 422.453125 709.0625 421.757812 C 708.921875 421.0625 708.71875 420.386719 708.445312 419.734375 C 708.175781 419.078125 707.84375 418.457031 707.449219 417.867188 C 707.054688 417.277344 706.605469 416.730469 706.105469 416.230469 C 705.601562 415.726562 705.058594 415.28125 704.46875 414.886719 C 703.878906 414.492188 703.253906 414.160156 702.597656 413.886719 C 701.945312 413.617188 701.269531 413.410156 700.570312 413.273438 C 699.875 413.136719 699.171875 413.066406 698.464844 413.066406 L 676.851562 413.066406 C 676.144531 413.066406 675.441406 413.136719 674.746094 413.273438 C 674.046875 413.410156 673.375 413.617188 672.71875 413.886719 C 672.0625 414.160156 671.4375 414.492188 670.847656 414.886719 C 670.257812 415.28125 669.714844 415.726562 669.210938 416.230469 C 668.710938 416.730469 668.261719 417.277344 667.867188 417.867188 C 667.472656 418.457031 667.140625 419.078125 666.871094 419.734375 C 666.597656 420.386719 666.394531 421.0625 666.253906 421.757812 C 666.117188 422.453125 666.046875 423.15625 666.046875 423.867188 Z M 676.851562 423.867188 L 698.464844 423.867188 L 698.464844 445.464844 L 676.851562 445.464844 Z M 676.851562 423.867188 " fill-opacity="1" fill-rule="nonzero"/><path fill="#3d167b" d="M 730.878906 445.464844 C 730.878906 446.175781 730.949219 446.878906 731.089844 447.574219 C 731.226562 448.269531 731.429688 448.945312 731.703125 449.597656 C 731.972656 450.253906 732.308594 450.875 732.703125 451.464844 C 733.097656 452.054688 733.542969 452.601562 734.046875 453.101562 C 734.546875 453.605469 735.09375 454.050781 735.683594 454.445312 C 736.273438 454.839844 736.894531 455.171875 737.550781 455.445312 C 738.207031 455.714844 738.882812 455.921875 739.578125 456.058594 C 740.273438 456.195312 740.976562 456.265625 741.6875 456.265625 L 763.296875 456.265625 C 764.007812 456.265625 764.710938 456.195312 765.40625 456.058594 C 766.101562 455.921875 766.777344 455.714844 767.433594 455.445312 C 768.085938 455.171875 768.710938 454.839844 769.300781 454.445312 C 769.890625 454.050781 770.4375 453.605469 770.9375 453.101562 C 771.441406 452.601562 771.886719 452.054688 772.28125 451.464844 C 772.675781 450.875 773.007812 450.253906 773.28125 449.597656 C 773.550781 448.945312 773.757812 448.269531 773.894531 447.574219 C 774.035156 446.878906 774.101562 446.175781 774.101562 445.464844 L 774.101562 423.867188 C 774.101562 423.15625 774.035156 422.453125 773.894531 421.757812 C 773.757812 421.0625 773.550781 420.386719 773.28125 419.734375 C 773.007812 419.078125 772.675781 418.457031 772.28125 417.867188 C 771.886719 417.277344 771.441406 416.730469 770.9375 416.230469 C 770.4375 415.726562 769.890625 415.28125 769.300781 414.886719 C 768.710938 414.492188 768.085938 414.160156 767.433594 413.886719 C 766.777344 413.617188 766.101562 413.410156 765.40625 413.273438 C 764.710938 413.136719 764.007812 413.066406 763.296875 413.066406 L 741.6875 413.066406 C 740.976562 413.066406 740.273438 413.136719 739.578125 413.273438 C 738.882812 413.410156 738.207031 413.617188 737.550781 413.886719 C 736.894531 414.160156 736.273438 414.492188 735.683594 414.886719 C 735.09375 415.28125 734.546875 415.726562 734.046875 416.230469 C 733.542969 416.730469 733.097656 417.277344 732.703125 417.867188 C 732.308594 418.457031 731.972656 419.078125 731.703125 419.734375 C 731.429688 420.386719 731.226562 421.0625 731.089844 421.757812 C 730.949219 422.453125 730.878906 423.15625 730.878906 423.867188 Z M 741.6875 423.867188 L 763.296875 423.867188 L 763.296875 445.464844 L 741.6875 445.464844 Z M 741.6875 423.867188 " fill-opacity="1" fill-rule="nonzero"/><path fill="#3d167b" d="M 795.714844 445.464844 C 795.714844 446.175781 795.78125 446.878906 795.921875 447.574219 C 796.058594 448.269531 796.265625 448.945312 796.535156 449.597656 C 796.808594 450.253906 797.140625 450.875 797.535156 451.464844 C 797.929688 452.054688 798.378906 452.601562 798.878906 453.101562 C 799.378906 453.605469 799.925781 454.050781 800.515625 454.445312 C 801.105469 454.839844 801.730469 455.171875 802.382812 455.445312 C 803.039062 455.714844 803.714844 455.921875 804.410156 456.058594 C 805.105469 456.195312 805.808594 456.265625 806.519531 456.265625 L 828.128906 456.265625 C 828.839844 456.265625 829.542969 456.195312 830.238281 456.058594 C 830.933594 455.921875 831.609375 455.714844 832.265625 455.445312 C 832.921875 455.171875 833.542969 454.839844 834.132812 454.445312 C 834.722656 454.050781 835.269531 453.605469 835.769531 453.101562 C 836.273438 452.601562 836.722656 452.054688 837.113281 451.464844 C 837.507812 450.875 837.84375 450.253906 838.113281 449.597656 C 838.386719 448.945312 838.589844 448.269531 838.726562 447.574219 C 838.867188 446.878906 838.9375 446.175781 838.9375 445.464844 L 838.9375 423.867188 C 838.9375 423.15625 838.867188 422.453125 838.726562 421.757812 C 838.589844 421.0625 838.386719 420.386719 838.113281 419.734375 C 837.84375 419.078125 837.507812 418.457031 837.113281 417.867188 C 836.722656 417.277344 836.273438 416.730469 835.769531 416.230469 C 835.269531 415.726562 834.722656 415.28125 834.132812 414.886719 C 833.542969 414.492188 832.921875 414.160156 832.265625 413.886719 C 831.609375 413.617188 830.933594 413.410156 830.238281 413.273438 C 829.542969 413.136719 828.839844 413.066406 828.128906 413.066406 L 806.519531 413.066406 C 805.808594 413.066406 805.105469 413.136719 804.410156 413.273438 C 803.714844 413.410156 803.039062 413.617188 802.382812 413.886719 C 801.730469 414.160156 801.105469 414.492188 800.515625 414.886719 C 799.925781 415.28125 799.378906 415.726562 798.878906 416.230469 C 798.378906 416.730469 797.929688 417.277344 797.535156 417.867188 C 797.140625 418.457031 796.808594 419.078125 796.535156 419.734375 C 796.265625 420.386719 796.058594 421.0625 795.921875 421.757812 C 795.78125 422.453125 795.714844 423.15625 795.714844 423.867188 Z M 806.519531 423.867188 L 828.128906 423.867188 L 828.128906 445.464844 L 806.519531 445.464844 Z M 806.519531 423.867188 " fill-opacity="1" fill-rule="nonzero"/><path fill="#3d167b" d="M 601.214844 502.164062 C 601.214844 502.875 601.28125 503.578125 601.421875 504.273438 C 601.558594 504.96875 601.765625 505.644531 602.035156 506.296875 C 602.308594 506.953125 602.640625 507.574219 603.035156 508.164062 C 603.429688 508.753906 603.878906 509.300781 604.378906 509.800781 C 604.878906 510.304688 605.425781 510.75 606.015625 511.144531 C 606.605469 511.539062 607.230469 511.871094 607.882812 512.144531 C 608.539062 512.414062 609.214844 512.621094 609.910156 512.757812 C 610.605469 512.894531 611.308594 512.964844 612.019531 512.964844 L 633.628906 512.964844 C 634.339844 512.964844 635.042969 512.894531 635.738281 512.757812 C 636.433594 512.621094 637.109375 512.414062 637.765625 512.144531 C 638.421875 511.871094 639.042969 511.539062 639.632812 511.144531 C 640.222656 510.75 640.769531 510.304688 641.269531 509.800781 C 641.773438 509.300781 642.222656 508.753906 642.613281 508.164062 C 643.007812 507.574219 643.34375 506.953125 643.613281 506.296875 C 643.886719 505.644531 644.089844 504.96875 644.226562 504.273438 C 644.367188 503.578125 644.4375 502.875 644.4375 502.164062 L 644.4375 480.566406 C 644.4375 479.855469 644.367188 479.152344 644.226562 478.457031 C 644.089844 477.761719 643.886719 477.085938 643.613281 476.433594 C 643.34375 475.777344 643.007812 475.15625 642.613281 474.566406 C 642.222656 473.976562 641.773438 473.429688 641.269531 472.929688 C 640.769531 472.425781 640.222656 471.980469 639.632812 471.585938 C 639.042969 471.191406 638.421875 470.859375 637.765625 470.585938 C 637.109375 470.316406 636.433594 470.113281 635.738281 469.972656 C 635.042969 469.835938 634.339844 469.765625 633.628906 469.765625 L 612.019531 469.765625 C 611.308594 469.765625 610.605469 469.835938 609.910156 469.972656 C 609.214844 470.113281 608.539062 470.316406 607.882812 470.585938 C 607.230469 470.859375 606.605469 471.191406 606.015625 471.585938 C 605.425781 471.980469 604.878906 472.425781 604.378906 472.929688 C 603.878906 473.429688 603.429688 473.976562 603.035156 474.566406 C 602.640625 475.15625 602.308594 475.777344 602.035156 476.433594 C 601.765625 477.085938 601.558594 477.761719 601.421875 478.457031 C 601.28125 479.152344 601.214844 479.855469 601.214844 480.566406 Z M 612.019531 480.566406 L 633.628906 480.566406 L 633.628906 502.164062 L 612.019531 502.164062 Z M 612.019531 480.566406 " fill-opacity="1" fill-rule="nonzero"/><path fill="#3d167b" d="M 666.046875 502.164062 C 666.046875 502.875 666.117188 503.578125 666.253906 504.273438 C 666.394531 504.96875 666.597656 505.644531 666.871094 506.296875 C 667.140625 506.953125 667.472656 507.574219 667.867188 508.164062 C 668.261719 508.753906 668.710938 509.300781 669.210938 509.800781 C 669.714844 510.304688 670.257812 510.75 670.847656 511.144531 C 671.4375 511.539062 672.0625 511.871094 672.71875 512.144531 C 673.375 512.414062 674.046875 512.621094 674.746094 512.757812 C 675.441406 512.894531 676.144531 512.964844 676.851562 512.964844 L 698.464844 512.964844 C 699.171875 512.964844 699.875 512.894531 700.570312 512.757812 C 701.269531 512.621094 701.945312 512.414062 702.597656 512.144531 C 703.253906 511.871094 703.878906 511.539062 704.46875 511.144531 C 705.058594 510.75 705.601562 510.304688 706.105469 509.800781 C 706.605469 509.300781 707.054688 508.753906 707.449219 508.164062 C 707.84375 507.574219 708.175781 506.953125 708.445312 506.296875 C 708.71875 505.644531 708.921875 504.96875 709.0625 504.273438 C 709.199219 503.578125 709.269531 502.875 709.269531 502.164062 L 709.269531 480.566406 C 709.269531 479.855469 709.199219 479.152344 709.0625 478.457031 C 708.921875 477.761719 708.71875 477.085938 708.445312 476.433594 C 708.175781 475.777344 707.84375 475.15625 707.449219 474.566406 C 707.054688 473.976562 706.605469 473.429688 706.105469 472.929688 C 705.601562 472.425781 705.058594 471.980469 704.46875 471.585938 C 703.878906 471.191406 703.253906 470.859375 702.597656 470.585938 C 701.945312 470.316406 701.269531 470.113281 700.570312 469.972656 C 699.875 469.835938 699.171875 469.765625 698.464844 469.765625 L 676.851562 469.765625 C 676.144531 469.765625 675.441406 469.835938 674.746094 469.972656 C 674.046875 470.113281 673.375 470.316406 672.71875 470.585938 C 672.0625 470.859375 671.4375 471.191406 670.847656 471.585938 C 670.257812 471.980469 669.714844 472.425781 669.210938 472.929688 C 668.710938 473.429688 668.261719 473.976562 667.867188 474.566406 C 667.472656 475.15625 667.140625 475.777344 666.871094 476.433594 C 666.597656 477.085938 666.394531 477.761719 666.253906 478.457031 C 666.117188 479.152344 666.046875 479.855469 666.046875 480.566406 Z M 676.851562 480.566406 L 698.464844 480.566406 L 698.464844 502.164062 L 676.851562 502.164062 Z M 676.851562 480.566406 " fill-opacity="1" fill-rule="nonzero"/><path fill="#3d167b" d="M 730.878906 502.164062 C 730.878906 502.875 730.949219 503.578125 731.089844 504.273438 C 731.226562 504.96875 731.429688 505.644531 731.703125 506.296875 C 731.972656 506.953125 732.308594 507.574219 732.703125 508.164062 C 733.097656 508.753906 733.542969 509.300781 734.046875 509.800781 C 734.546875 510.304688 735.09375 510.75 735.683594 511.144531 C 736.273438 511.539062 736.894531 511.871094 737.550781 512.144531 C 738.207031 512.414062 738.882812 512.621094 739.578125 512.757812 C 740.273438 512.894531 740.976562 512.964844 741.6875 512.964844 L 763.296875 512.964844 C 764.007812 512.964844 764.710938 512.894531 765.40625 512.757812 C 766.101562 512.621094 766.777344 512.414062 767.433594 512.144531 C 768.085938 511.871094 768.710938 511.539062 769.300781 511.144531 C 769.890625 510.75 770.4375 510.304688 770.9375 509.800781 C 771.441406 509.300781 771.886719 508.753906 772.28125 508.164062 C 772.675781 507.574219 773.007812 506.953125 773.28125 506.296875 C 773.550781 505.644531 773.757812 504.96875 773.894531 504.273438 C 774.035156 503.578125 774.101562 502.875 774.101562 502.164062 L 774.101562 480.566406 C 774.101562 479.855469 774.035156 479.152344 773.894531 478.457031 C 773.757812 477.761719 773.550781 477.085938 773.28125 476.433594 C 773.007812 475.777344 772.675781 475.15625 772.28125 474.566406 C 771.886719 473.976562 771.441406 473.429688 770.9375 472.929688 C 770.4375 472.425781 769.890625 471.980469 769.300781 471.585938 C 768.710938 471.191406 768.085938 470.859375 767.433594 470.585938 C 766.777344 470.316406 766.101562 470.113281 765.40625 469.972656 C 764.710938 469.835938 764.007812 469.765625 763.296875 469.765625 L 741.6875 469.765625 C 740.976562 469.765625 740.273438 469.835938 739.578125 469.972656 C 738.882812 470.113281 738.207031 470.316406 737.550781 470.585938 C 736.894531 470.859375 736.273438 471.191406 735.683594 471.585938 C 735.09375 471.980469 734.546875 472.425781 734.046875 472.929688 C 733.542969 473.429688 733.097656 473.976562 732.703125 474.566406 C 732.308594 475.15625 731.972656 475.777344 731.703125 476.433594 C 731.429688 477.085938 731.226562 477.761719 731.089844 478.457031 C 730.949219 479.152344 730.878906 479.855469 730.878906 480.566406 Z M 741.6875 480.566406 L 763.296875 480.566406 L 763.296875 502.164062 L 741.6875 502.164062 Z M 741.6875 480.566406 " fill-opacity="1" fill-rule="nonzero"/><g clip-path="url(#bc27ebd601)"><path fill="#3d167b" d="M 838.9375 264.566406 L 822.726562 264.566406 L 822.726562 261.867188 C 822.726562 261.25 822.699219 260.632812 822.636719 260.015625 C 822.574219 259.398438 822.484375 258.789062 822.363281 258.179688 C 822.242188 257.574219 822.09375 256.972656 821.914062 256.382812 C 821.734375 255.789062 821.523438 255.207031 821.289062 254.632812 C 821.050781 254.0625 820.785156 253.503906 820.496094 252.957031 C 820.203125 252.414062 819.886719 251.882812 819.539062 251.367188 C 819.195312 250.851562 818.828125 250.355469 818.433594 249.878906 C 818.042969 249.398438 817.628906 248.941406 817.1875 248.503906 C 816.75 248.066406 816.292969 247.648438 815.8125 247.257812 C 815.335938 246.863281 814.839844 246.496094 814.324219 246.152344 C 813.808594 245.808594 813.277344 245.492188 812.730469 245.199219 C 812.1875 244.90625 811.625 244.644531 811.054688 244.40625 C 810.480469 244.167969 809.898438 243.960938 809.308594 243.78125 C 808.714844 243.601562 808.113281 243.453125 807.507812 243.332031 C 806.898438 243.210938 806.289062 243.121094 805.671875 243.058594 C 805.054688 242.996094 804.4375 242.96875 803.816406 242.96875 C 803.199219 242.96875 802.582031 242.996094 801.964844 243.058594 C 801.347656 243.121094 800.734375 243.210938 800.128906 243.332031 C 799.519531 243.453125 798.921875 243.601562 798.328125 243.78125 C 797.734375 243.960938 797.152344 244.167969 796.582031 244.40625 C 796.007812 244.644531 795.449219 244.90625 794.902344 245.199219 C 794.359375 245.492188 793.828125 245.808594 793.3125 246.152344 C 792.796875 246.496094 792.300781 246.863281 791.820312 247.257812 C 791.34375 247.648438 790.882812 248.066406 790.445312 248.503906 C 790.007812 248.941406 789.59375 249.398438 789.199219 249.878906 C 788.808594 250.355469 788.4375 250.851562 788.09375 251.367188 C 787.75 251.882812 787.433594 252.414062 787.140625 252.957031 C 786.847656 253.503906 786.585938 254.0625 786.347656 254.632812 C 786.109375 255.207031 785.902344 255.789062 785.722656 256.382812 C 785.542969 256.972656 785.390625 257.574219 785.273438 258.179688 C 785.152344 258.789062 785.058594 259.398438 785 260.015625 C 784.9375 260.632812 784.910156 261.25 784.910156 261.867188 L 784.910156 264.566406 L 738.984375 264.566406 L 738.984375 261.867188 C 738.984375 261.25 738.953125 260.632812 738.894531 260.015625 C 738.832031 259.398438 738.742188 258.789062 738.621094 258.179688 C 738.5 257.574219 738.351562 256.972656 738.171875 256.382812 C 737.992188 255.789062 737.78125 255.207031 737.546875 254.632812 C 737.308594 254.0625 737.042969 253.503906 736.75 252.957031 C 736.460938 252.414062 736.140625 251.882812 735.796875 251.367188 C 735.453125 250.851562 735.085938 250.355469 734.691406 249.878906 C 734.300781 249.398438 733.882812 248.941406 733.445312 248.503906 C 733.007812 248.066406 732.550781 247.648438 732.070312 247.257812 C 731.59375 246.863281 731.09375 246.496094 730.582031 246.152344 C 730.066406 245.808594 729.535156 245.492188 728.988281 245.199219 C 728.441406 244.90625 727.882812 244.644531 727.3125 244.40625 C 726.738281 244.167969 726.15625 243.960938 725.5625 243.78125 C 724.972656 243.601562 724.371094 243.453125 723.765625 243.332031 C 723.15625 243.210938 722.542969 243.121094 721.929688 243.058594 C 721.3125 242.996094 720.695312 242.96875 720.074219 242.96875 C 719.457031 242.96875 718.835938 242.996094 718.222656 243.058594 C 717.605469 243.121094 716.992188 243.210938 716.386719 243.332031 C 715.777344 243.453125 715.179688 243.601562 714.585938 243.78125 C 713.992188 243.960938 713.410156 244.167969 712.839844 244.40625 C 712.265625 244.644531 711.707031 244.90625 711.160156 245.199219 C 710.613281 245.492188 710.085938 245.808594 709.570312 246.152344 C 709.054688 246.496094 708.558594 246.863281 708.078125 247.257812 C 707.601562 247.648438 707.140625 248.066406 706.703125 248.503906 C 706.265625 248.941406 705.851562 249.398438 705.457031 249.878906 C 705.066406 250.355469 704.695312 250.851562 704.351562 251.367188 C 704.007812 251.882812 703.691406 252.414062 703.398438 252.957031 C 703.105469 253.503906 702.839844 254.0625 702.605469 254.632812 C 702.367188 255.207031 702.160156 255.789062 701.980469 256.382812 C 701.800781 256.972656 701.648438 257.574219 701.527344 258.179688 C 701.40625 258.789062 701.316406 259.398438 701.257812 260.015625 C 701.195312 260.632812 701.164062 261.25 701.164062 261.867188 L 701.164062 264.566406 L 655.242188 264.566406 L 655.242188 261.867188 C 655.242188 261.25 655.210938 260.632812 655.152344 260.015625 C 655.089844 259.398438 655 258.789062 654.878906 258.179688 C 654.757812 257.574219 654.605469 256.972656 654.425781 256.382812 C 654.246094 255.789062 654.039062 255.207031 653.800781 254.632812 C 653.566406 254.0625 653.300781 253.503906 653.007812 252.957031 C 652.71875 252.414062 652.398438 251.882812 652.054688 251.367188 C 651.710938 250.851562 651.34375 250.355469 650.949219 249.878906 C 650.554688 249.398438 650.140625 248.941406 649.703125 248.503906 C 649.265625 248.066406 648.808594 247.648438 648.328125 247.257812 C 647.847656 246.863281 647.351562 246.496094 646.835938 246.152344 C 646.324219 245.808594 645.792969 245.492188 645.246094 245.199219 C 644.699219 244.90625 644.140625 244.644531 643.566406 244.40625 C 642.996094 244.167969 642.414062 243.960938 641.820312 243.78125 C 641.226562 243.601562 640.628906 243.453125 640.019531 243.332031 C 639.414062 243.210938 638.800781 243.121094 638.183594 243.058594 C 637.570312 242.996094 636.953125 242.96875 636.332031 242.96875 C 635.710938 242.96875 635.09375 242.996094 634.476562 243.058594 C 633.863281 243.121094 633.25 243.210938 632.644531 243.332031 C 632.035156 243.453125 631.433594 243.601562 630.84375 243.78125 C 630.25 243.960938 629.667969 244.167969 629.09375 244.40625 C 628.523438 244.644531 627.964844 244.90625 627.417969 245.199219 C 626.871094 245.492188 626.339844 245.808594 625.828125 246.152344 C 625.3125 246.496094 624.8125 246.863281 624.335938 247.257812 C 623.855469 247.648438 623.398438 248.066406 622.960938 248.503906 C 622.523438 248.941406 622.105469 249.398438 621.714844 249.878906 C 621.320312 250.355469 620.953125 250.851562 620.609375 251.367188 C 620.265625 251.882812 619.945312 252.414062 619.65625 252.957031 C 619.363281 253.503906 619.097656 254.0625 618.863281 254.632812 C 618.625 255.207031 618.417969 255.789062 618.238281 256.382812 C 618.058594 256.972656 617.90625 257.574219 617.785156 258.179688 C 617.664062 258.789062 617.574219 259.398438 617.511719 260.015625 C 617.453125 260.632812 617.421875 261.25 617.421875 261.867188 L 617.421875 264.566406 L 601.214844 264.566406 C 600.328125 264.570312 599.445312 264.613281 598.566406 264.699219 C 597.6875 264.789062 596.8125 264.917969 595.945312 265.089844 C 595.078125 265.265625 594.222656 265.480469 593.375 265.738281 C 592.53125 265.996094 591.699219 266.292969 590.882812 266.632812 C 590.0625 266.96875 589.265625 267.347656 588.484375 267.765625 C 587.707031 268.183594 586.949219 268.636719 586.214844 269.128906 C 585.476562 269.621094 584.769531 270.144531 584.085938 270.707031 C 583.402344 271.265625 582.746094 271.859375 582.121094 272.484375 C 581.496094 273.109375 580.902344 273.765625 580.34375 274.449219 C 579.78125 275.132812 579.253906 275.839844 578.761719 276.574219 C 578.269531 277.308594 577.816406 278.066406 577.398438 278.847656 C 576.980469 279.625 576.605469 280.421875 576.265625 281.238281 C 575.925781 282.054688 575.628906 282.886719 575.371094 283.734375 C 575.113281 284.578125 574.898438 285.433594 574.722656 286.300781 C 574.550781 287.167969 574.421875 288.042969 574.332031 288.921875 C 574.246094 289.800781 574.199219 290.683594 574.199219 291.566406 L 574.199219 458.964844 C 574.199219 459.320312 574.234375 459.671875 574.304688 460.019531 C 574.371094 460.367188 574.476562 460.703125 574.609375 461.03125 C 574.746094 461.359375 574.914062 461.671875 575.109375 461.964844 C 575.308594 462.261719 575.53125 462.535156 575.78125 462.785156 C 576.035156 463.035156 576.304688 463.257812 576.601562 463.457031 C 576.894531 463.652344 577.207031 463.820312 577.535156 463.953125 C 577.863281 464.089844 578.199219 464.191406 578.546875 464.261719 C 578.898438 464.332031 579.246094 464.367188 579.601562 464.367188 C 579.957031 464.367188 580.308594 464.332031 580.65625 464.261719 C 581.003906 464.191406 581.34375 464.089844 581.671875 463.953125 C 581.996094 463.820312 582.308594 463.652344 582.605469 463.457031 C 582.898438 463.257812 583.171875 463.035156 583.421875 462.785156 C 583.675781 462.535156 583.898438 462.261719 584.09375 461.964844 C 584.292969 461.671875 584.457031 461.359375 584.59375 461.03125 C 584.730469 460.703125 584.832031 460.367188 584.902344 460.019531 C 584.972656 459.671875 585.003906 459.320312 585.003906 458.964844 L 585.003906 340.167969 L 855.144531 340.167969 L 855.144531 469.765625 C 855.144531 470.121094 855.109375 470.472656 855.039062 470.820312 C 854.972656 471.167969 854.867188 471.503906 854.734375 471.832031 C 854.597656 472.160156 854.429688 472.472656 854.234375 472.765625 C 854.035156 473.0625 853.8125 473.332031 853.5625 473.585938 C 853.3125 473.835938 853.039062 474.058594 852.742188 474.253906 C 852.449219 474.453125 852.136719 474.617188 851.808594 474.753906 C 851.480469 474.890625 851.144531 474.992188 850.796875 475.0625 C 850.449219 475.132812 850.097656 475.164062 849.742188 475.164062 L 822.726562 475.164062 C 821.84375 475.167969 820.960938 475.210938 820.082031 475.296875 C 819.199219 475.386719 818.328125 475.515625 817.460938 475.691406 C 816.59375 475.863281 815.734375 476.078125 814.890625 476.335938 C 814.042969 476.59375 813.210938 476.890625 812.394531 477.230469 C 811.578125 477.570312 810.78125 477.945312 810 478.363281 C 809.21875 478.78125 808.460938 479.234375 807.726562 479.726562 C 806.992188 480.21875 806.28125 480.742188 805.597656 481.304688 C 804.914062 481.867188 804.261719 482.457031 803.636719 483.082031 C 803.011719 483.707031 802.417969 484.363281 801.855469 485.046875 C 801.292969 485.730469 800.769531 486.4375 800.277344 487.171875 C 799.785156 487.90625 799.332031 488.664062 798.914062 489.445312 C 798.496094 490.222656 798.117188 491.023438 797.777344 491.839844 C 797.441406 492.65625 797.140625 493.484375 796.882812 494.332031 C 796.628906 495.175781 796.410156 496.035156 796.238281 496.902344 C 796.066406 497.765625 795.933594 498.640625 795.847656 499.519531 C 795.757812 500.398438 795.714844 501.28125 795.714844 502.164062 L 795.714844 529.164062 C 795.714844 529.519531 795.679688 529.871094 795.609375 530.21875 C 795.539062 530.566406 795.4375 530.902344 795.300781 531.230469 C 795.167969 531.558594 795 531.871094 794.804688 532.164062 C 794.605469 532.460938 794.382812 532.734375 794.132812 532.984375 C 793.878906 533.234375 793.609375 533.457031 793.3125 533.65625 C 793.019531 533.851562 792.707031 534.019531 792.378906 534.152344 C 792.050781 534.289062 791.714844 534.390625 791.363281 534.460938 C 791.015625 534.53125 790.664062 534.566406 790.3125 534.566406 L 601.214844 534.234375 C 600.683594 534.234375 600.152344 534.207031 599.625 534.15625 C 599.097656 534.105469 598.574219 534.027344 598.050781 533.921875 C 597.53125 533.820312 597.015625 533.691406 596.507812 533.535156 C 596 533.382812 595.5 533.203125 595.011719 533 C 594.519531 532.796875 594.042969 532.570312 593.574219 532.320312 C 593.105469 532.070312 592.648438 531.800781 592.207031 531.503906 C 591.769531 531.210938 591.339844 530.894531 590.929688 530.558594 C 590.519531 530.21875 590.128906 529.863281 589.753906 529.488281 C 589.378906 529.113281 589.019531 528.722656 588.683594 528.3125 C 588.347656 527.902344 588.03125 527.476562 587.738281 527.035156 C 587.441406 526.59375 587.167969 526.140625 586.917969 525.671875 C 586.667969 525.203125 586.441406 524.722656 586.238281 524.234375 C 586.035156 523.742188 585.859375 523.246094 585.703125 522.738281 C 585.550781 522.230469 585.421875 521.714844 585.316406 521.195312 C 585.214844 520.675781 585.136719 520.152344 585.082031 519.621094 C 585.03125 519.09375 585.003906 518.566406 585.003906 518.035156 L 585.003906 502.164062 C 585.003906 501.8125 584.972656 501.460938 584.902344 501.113281 C 584.832031 500.765625 584.730469 500.425781 584.59375 500.097656 C 584.457031 499.769531 584.292969 499.460938 584.09375 499.164062 C 583.898438 498.871094 583.675781 498.597656 583.421875 498.347656 C 583.171875 498.097656 582.898438 497.871094 582.605469 497.675781 C 582.308594 497.480469 581.996094 497.3125 581.671875 497.175781 C 581.34375 497.039062 581.003906 496.9375 580.65625 496.871094 C 580.308594 496.800781 579.957031 496.765625 579.601562 496.765625 C 579.246094 496.765625 578.898438 496.800781 578.546875 496.871094 C 578.199219 496.9375 577.863281 497.039062 577.535156 497.175781 C 577.207031 497.3125 576.894531 497.480469 576.601562 497.675781 C 576.304688 497.871094 576.035156 498.097656 575.78125 498.347656 C 575.53125 498.597656 575.308594 498.871094 575.109375 499.164062 C 574.914062 499.460938 574.746094 499.769531 574.609375 500.097656 C 574.476562 500.425781 574.371094 500.765625 574.304688 501.113281 C 574.234375 501.460938 574.199219 501.8125 574.199219 502.164062 L 574.199219 539.964844 C 574.199219 540.847656 574.246094 541.730469 574.332031 542.609375 C 574.421875 543.488281 574.550781 544.363281 574.726562 545.230469 C 574.898438 546.097656 575.113281 546.953125 575.371094 547.800781 C 575.628906 548.644531 575.925781 549.476562 576.265625 550.292969 C 576.605469 551.109375 576.980469 551.90625 577.398438 552.6875 C 577.816406 553.464844 578.269531 554.222656 578.761719 554.957031 C 579.253906 555.691406 579.78125 556.402344 580.34375 557.085938 C 580.902344 557.769531 581.496094 558.421875 582.121094 559.046875 C 582.746094 559.671875 583.402344 560.265625 584.085938 560.824219 C 584.769531 561.386719 585.476562 561.914062 586.214844 562.402344 C 586.949219 562.894531 587.707031 563.351562 588.484375 563.765625 C 589.265625 564.183594 590.0625 564.5625 590.882812 564.902344 C 591.699219 565.238281 592.53125 565.539062 593.375 565.792969 C 594.222656 566.050781 595.078125 566.265625 595.945312 566.441406 C 596.8125 566.613281 597.6875 566.746094 598.566406 566.832031 C 599.445312 566.917969 600.328125 566.964844 601.214844 566.964844 L 838.9375 566.964844 C 839.820312 566.964844 840.703125 566.917969 841.582031 566.832031 C 842.464844 566.746094 843.335938 566.613281 844.203125 566.441406 C 845.070312 566.265625 845.929688 566.050781 846.773438 565.792969 C 847.621094 565.539062 848.453125 565.238281 849.269531 564.902344 C 850.085938 564.5625 850.882812 564.183594 851.664062 563.765625 C 852.445312 563.351562 853.199219 562.894531 853.9375 562.402344 C 854.671875 561.914062 855.378906 561.386719 856.0625 560.824219 C 856.746094 560.265625 857.402344 559.671875 858.027344 559.046875 C 858.652344 558.421875 859.246094 557.769531 859.808594 557.085938 C 860.367188 556.402344 860.894531 555.691406 861.386719 554.957031 C 861.878906 554.222656 862.332031 553.464844 862.75 552.6875 C 863.167969 551.90625 863.546875 551.109375 863.882812 550.292969 C 864.222656 549.476562 864.523438 548.644531 864.777344 547.800781 C 865.035156 546.953125 865.25 546.097656 865.425781 545.230469 C 865.597656 544.363281 865.730469 543.488281 865.816406 542.609375 C 865.90625 541.730469 865.949219 540.847656 865.949219 539.964844 L 865.949219 291.566406 C 865.949219 290.683594 865.90625 289.800781 865.816406 288.921875 C 865.730469 288.042969 865.597656 287.167969 865.425781 286.300781 C 865.25 285.433594 865.035156 284.578125 864.777344 283.734375 C 864.523438 282.886719 864.222656 282.054688 863.882812 281.238281 C 863.546875 280.421875 863.167969 279.625 862.75 278.847656 C 862.332031 278.066406 861.878906 277.308594 861.386719 276.574219 C 860.894531 275.839844 860.367188 275.132812 859.808594 274.449219 C 859.246094 273.765625 858.652344 273.109375 858.027344 272.484375 C 857.402344 271.859375 856.746094 271.265625 856.0625 270.707031 C 855.378906 270.144531 854.671875 269.621094 853.9375 269.128906 C 853.199219 268.636719 852.445312 268.183594 851.664062 267.765625 C 850.882812 267.347656 850.085938 266.96875 849.269531 266.632812 C 848.453125 266.292969 847.621094 265.996094 846.773438 265.738281 C 845.929688 265.480469 845.070312 265.265625 844.203125 265.089844 C 843.335938 264.917969 842.464844 264.789062 841.582031 264.699219 C 840.703125 264.613281 839.820312 264.570312 838.9375 264.566406 Z M 795.714844 261.867188 C 795.714844 261.335938 795.765625 260.808594 795.871094 260.289062 C 795.972656 259.765625 796.128906 259.257812 796.332031 258.769531 C 796.535156 258.277344 796.785156 257.808594 797.078125 257.367188 C 797.375 256.925781 797.710938 256.515625 798.085938 256.140625 C 798.464844 255.765625 798.875 255.429688 799.316406 255.132812 C 799.757812 254.835938 800.226562 254.585938 800.714844 254.382812 C 801.207031 254.179688 801.714844 254.027344 802.238281 253.921875 C 802.757812 253.820312 803.285156 253.765625 803.816406 253.765625 C 804.351562 253.765625 804.878906 253.820312 805.398438 253.921875 C 805.921875 254.027344 806.425781 254.179688 806.917969 254.382812 C 807.410156 254.585938 807.878906 254.835938 808.320312 255.132812 C 808.761719 255.429688 809.171875 255.765625 809.546875 256.140625 C 809.925781 256.515625 810.261719 256.925781 810.554688 257.367188 C 810.851562 257.808594 811.101562 258.277344 811.304688 258.769531 C 811.507812 259.257812 811.664062 259.765625 811.765625 260.289062 C 811.871094 260.808594 811.921875 261.335938 811.921875 261.867188 L 811.921875 283.46875 C 811.921875 284 811.871094 284.527344 811.765625 285.046875 C 811.664062 285.570312 811.507812 286.074219 811.304688 286.566406 C 811.101562 287.058594 810.851562 287.523438 810.554688 287.96875 C 810.261719 288.410156 809.925781 288.820312 809.546875 289.195312 C 809.171875 289.570312 808.761719 289.90625 808.320312 290.203125 C 807.878906 290.496094 807.410156 290.746094 806.917969 290.949219 C 806.425781 291.152344 805.921875 291.308594 805.398438 291.410156 C 804.878906 291.515625 804.351562 291.566406 803.816406 291.566406 C 803.285156 291.566406 802.757812 291.515625 802.238281 291.410156 C 801.714844 291.308594 801.207031 291.152344 800.714844 290.949219 C 800.226562 290.746094 799.757812 290.496094 799.316406 290.203125 C 798.875 289.90625 798.464844 289.570312 798.085938 289.195312 C 797.710938 288.820312 797.375 288.410156 797.078125 287.96875 C 796.785156 287.523438 796.535156 287.058594 796.332031 286.566406 C 796.128906 286.074219 795.972656 285.570312 795.871094 285.046875 C 795.765625 284.527344 795.714844 284 795.714844 283.46875 Z M 711.972656 261.867188 C 711.972656 261.335938 712.023438 260.808594 712.125 260.289062 C 712.230469 259.765625 712.382812 259.257812 712.585938 258.769531 C 712.792969 258.277344 713.039062 257.808594 713.335938 257.367188 C 713.632812 256.925781 713.96875 256.515625 714.34375 256.140625 C 714.722656 255.765625 715.128906 255.429688 715.574219 255.132812 C 716.015625 254.835938 716.480469 254.585938 716.972656 254.382812 C 717.464844 254.179688 717.972656 254.027344 718.492188 253.921875 C 719.015625 253.820312 719.542969 253.765625 720.074219 253.765625 C 720.605469 253.765625 721.132812 253.820312 721.65625 253.921875 C 722.179688 254.027344 722.683594 254.179688 723.175781 254.382812 C 723.667969 254.585938 724.136719 254.835938 724.578125 255.132812 C 725.019531 255.429688 725.429688 255.765625 725.804688 256.140625 C 726.183594 256.515625 726.519531 256.925781 726.8125 257.367188 C 727.109375 257.808594 727.359375 258.277344 727.5625 258.769531 C 727.765625 259.257812 727.917969 259.765625 728.023438 260.289062 C 728.128906 260.808594 728.179688 261.335938 728.179688 261.867188 L 728.179688 283.46875 C 728.179688 284 728.128906 284.527344 728.023438 285.046875 C 727.917969 285.570312 727.765625 286.074219 727.5625 286.566406 C 727.359375 287.058594 727.109375 287.523438 726.8125 287.96875 C 726.519531 288.410156 726.183594 288.820312 725.804688 289.195312 C 725.429688 289.570312 725.019531 289.90625 724.578125 290.203125 C 724.136719 290.496094 723.667969 290.746094 723.175781 290.949219 C 722.683594 291.152344 722.179688 291.308594 721.65625 291.410156 C 721.132812 291.515625 720.605469 291.566406 720.074219 291.566406 C 719.542969 291.566406 719.015625 291.515625 718.492188 291.410156 C 717.972656 291.308594 717.464844 291.152344 716.972656 290.949219 C 716.480469 290.746094 716.015625 290.496094 715.574219 290.203125 C 715.128906 289.90625 714.722656 289.570312 714.34375 289.195312 C 713.96875 288.820312 713.632812 288.410156 713.335938 287.96875 C 713.039062 287.523438 712.792969 287.058594 712.585938 286.566406 C 712.382812 286.074219 712.230469 285.570312 712.125 285.046875 C 712.023438 284.527344 711.972656 284 711.972656 283.46875 Z M 628.226562 261.867188 C 628.226562 261.335938 628.28125 260.808594 628.382812 260.289062 C 628.488281 259.765625 628.640625 259.257812 628.84375 258.769531 C 629.046875 258.277344 629.296875 257.808594 629.59375 257.367188 C 629.890625 256.925781 630.226562 256.515625 630.601562 256.140625 C 630.976562 255.765625 631.386719 255.429688 631.828125 255.132812 C 632.273438 254.835938 632.738281 254.585938 633.230469 254.382812 C 633.722656 254.179688 634.230469 254.027344 634.75 253.921875 C 635.273438 253.820312 635.800781 253.765625 636.332031 253.765625 C 636.863281 253.765625 637.390625 253.820312 637.914062 253.921875 C 638.433594 254.027344 638.941406 254.179688 639.433594 254.382812 C 639.925781 254.585938 640.390625 254.835938 640.835938 255.132812 C 641.277344 255.429688 641.6875 255.765625 642.0625 256.140625 C 642.4375 256.515625 642.773438 256.925781 643.070312 257.367188 C 643.367188 257.808594 643.617188 258.277344 643.820312 258.769531 C 644.023438 259.257812 644.175781 259.765625 644.28125 260.289062 C 644.382812 260.808594 644.4375 261.335938 644.4375 261.867188 L 644.4375 283.46875 C 644.4375 284 644.382812 284.527344 644.28125 285.046875 C 644.175781 285.570312 644.023438 286.074219 643.820312 286.566406 C 643.617188 287.058594 643.367188 287.523438 643.070312 287.96875 C 642.773438 288.410156 642.4375 288.820312 642.0625 289.195312 C 641.6875 289.570312 641.277344 289.90625 640.835938 290.203125 C 640.390625 290.496094 639.925781 290.746094 639.433594 290.949219 C 638.941406 291.152344 638.433594 291.308594 637.914062 291.410156 C 637.390625 291.515625 636.863281 291.566406 636.332031 291.566406 C 635.800781 291.566406 635.273438 291.515625 634.75 291.410156 C 634.230469 291.308594 633.722656 291.152344 633.230469 290.949219 C 632.738281 290.746094 632.273438 290.496094 631.828125 290.203125 C 631.386719 289.90625 630.976562 289.570312 630.601562 289.195312 C 630.226562 288.820312 629.890625 288.410156 629.59375 287.96875 C 629.296875 287.523438 629.046875 287.058594 628.84375 286.566406 C 628.640625 286.074219 628.488281 285.570312 628.382812 285.046875 C 628.28125 284.527344 628.226562 284 628.226562 283.46875 Z M 585.003906 329.367188 L 585.003906 291.566406 C 585.003906 291.035156 585.03125 290.507812 585.082031 289.980469 C 585.136719 289.453125 585.214844 288.925781 585.316406 288.40625 C 585.421875 287.886719 585.550781 287.371094 585.703125 286.863281 C 585.859375 286.355469 586.035156 285.859375 586.238281 285.367188 C 586.441406 284.878906 586.667969 284.398438 586.917969 283.929688 C 587.167969 283.460938 587.441406 283.007812 587.738281 282.566406 C 588.03125 282.125 588.347656 281.699219 588.683594 281.289062 C 589.019531 280.878906 589.378906 280.488281 589.753906 280.113281 C 590.128906 279.738281 590.519531 279.382812 590.929688 279.042969 C 591.339844 278.707031 591.769531 278.390625 592.210938 278.097656 C 592.648438 277.800781 593.105469 277.53125 593.574219 277.28125 C 594.042969 277.03125 594.519531 276.804688 595.011719 276.601562 C 595.5 276.398438 596 276.21875 596.507812 276.066406 C 597.015625 275.910156 597.53125 275.78125 598.050781 275.679688 C 598.574219 275.574219 599.097656 275.496094 599.625 275.445312 C 600.152344 275.394531 600.683594 275.367188 601.214844 275.367188 L 617.421875 275.367188 L 617.421875 283.46875 C 617.421875 284.085938 617.453125 284.703125 617.511719 285.320312 C 617.574219 285.9375 617.664062 286.546875 617.785156 287.15625 C 617.90625 287.761719 618.058594 288.359375 618.238281 288.953125 C 618.417969 289.546875 618.625 290.128906 618.863281 290.699219 C 619.097656 291.273438 619.363281 291.832031 619.65625 292.375 C 619.945312 292.921875 620.265625 293.453125 620.609375 293.96875 C 620.953125 294.480469 621.320312 294.980469 621.714844 295.457031 C 622.105469 295.9375 622.523438 296.394531 622.960938 296.832031 C 623.398438 297.269531 623.855469 297.683594 624.335938 298.078125 C 624.8125 298.46875 625.3125 298.839844 625.828125 299.183594 C 626.339844 299.527344 626.871094 299.84375 627.417969 300.136719 C 627.964844 300.425781 628.523438 300.691406 629.09375 300.929688 C 629.667969 301.164062 630.25 301.375 630.84375 301.554688 C 631.433594 301.734375 632.035156 301.882812 632.644531 302.003906 C 633.25 302.125 633.863281 302.214844 634.476562 302.277344 C 635.09375 302.335938 635.710938 302.367188 636.332031 302.367188 C 636.953125 302.367188 637.570312 302.335938 638.183594 302.277344 C 638.800781 302.214844 639.414062 302.125 640.019531 302.003906 C 640.628906 301.882812 641.226562 301.734375 641.820312 301.554688 C 642.414062 301.375 642.996094 301.164062 643.566406 300.929688 C 644.140625 300.691406 644.699219 300.425781 645.246094 300.136719 C 645.792969 299.84375 646.324219 299.527344 646.835938 299.183594 C 647.351562 298.839844 647.847656 298.46875 648.328125 298.078125 C 648.808594 297.683594 649.265625 297.269531 649.703125 296.832031 C 650.140625 296.394531 650.554688 295.9375 650.949219 295.457031 C 651.34375 294.980469 651.710938 294.480469 652.054688 293.96875 C 652.398438 293.453125 652.71875 292.921875 653.007812 292.375 C 653.300781 291.832031 653.566406 291.273438 653.800781 290.699219 C 654.039062 290.128906 654.246094 289.546875 654.425781 288.953125 C 654.605469 288.359375 654.757812 287.761719 654.878906 287.15625 C 655 286.546875 655.089844 285.9375 655.152344 285.320312 C 655.210938 284.703125 655.242188 284.085938 655.242188 283.46875 L 655.242188 275.367188 L 701.164062 275.367188 L 701.164062 283.46875 C 701.164062 284.085938 701.195312 284.703125 701.257812 285.320312 C 701.316406 285.9375 701.40625 286.546875 701.527344 287.15625 C 701.648438 287.761719 701.800781 288.359375 701.980469 288.953125 C 702.160156 289.546875 702.367188 290.128906 702.605469 290.699219 C 702.839844 291.273438 703.105469 291.832031 703.398438 292.375 C 703.691406 292.921875 704.007812 293.453125 704.351562 293.96875 C 704.695312 294.480469 705.066406 294.980469 705.457031 295.457031 C 705.851562 295.9375 706.265625 296.394531 706.703125 296.832031 C 707.140625 297.269531 707.601562 297.683594 708.078125 298.078125 C 708.558594 298.46875 709.054688 298.839844 709.570312 299.183594 C 710.085938 299.527344 710.613281 299.84375 711.160156 300.136719 C 711.707031 300.425781 712.265625 300.691406 712.839844 300.929688 C 713.410156 301.164062 713.992188 301.375 714.585938 301.554688 C 715.179688 301.734375 715.777344 301.882812 716.386719 302.003906 C 716.992188 302.125 717.605469 302.214844 718.222656 302.277344 C 718.835938 302.335938 719.457031 302.367188 720.074219 302.367188 C 720.695312 302.367188 721.3125 302.335938 721.929688 302.277344 C 722.542969 302.214844 723.15625 302.125 723.765625 302.003906 C 724.371094 301.882812 724.972656 301.734375 725.5625 301.554688 C 726.15625 301.375 726.738281 301.164062 727.3125 300.929688 C 727.882812 300.691406 728.441406 300.425781 728.988281 300.136719 C 729.535156 299.84375 730.066406 299.527344 730.582031 299.183594 C 731.09375 298.839844 731.59375 298.46875 732.070312 298.078125 C 732.550781 297.683594 733.007812 297.269531 733.445312 296.832031 C 733.882812 296.394531 734.300781 295.9375 734.691406 295.457031 C 735.085938 294.980469 735.453125 294.480469 735.796875 293.96875 C 736.140625 293.453125 736.460938 292.921875 736.75 292.375 C 737.042969 291.832031 737.308594 291.273438 737.546875 290.699219 C 737.78125 290.128906 737.992188 289.546875 738.171875 288.953125 C 738.351562 288.359375 738.5 287.761719 738.621094 287.15625 C 738.742188 286.546875 738.832031 285.9375 738.894531 285.320312 C 738.953125 284.703125 738.984375 284.085938 738.984375 283.46875 L 738.984375 275.367188 L 784.910156 275.367188 L 784.910156 283.46875 C 784.910156 284.085938 784.9375 284.703125 785 285.320312 C 785.058594 285.9375 785.152344 286.546875 785.273438 287.15625 C 785.390625 287.761719 785.542969 288.359375 785.722656 288.953125 C 785.902344 289.546875 786.109375 290.128906 786.347656 290.699219 C 786.585938 291.273438 786.847656 291.832031 787.140625 292.375 C 787.433594 292.921875 787.75 293.453125 788.09375 293.96875 C 788.4375 294.480469 788.808594 294.980469 789.199219 295.457031 C 789.59375 295.9375 790.007812 296.394531 790.445312 296.832031 C 790.882812 297.269531 791.34375 297.683594 791.820312 298.078125 C 792.300781 298.46875 792.796875 298.839844 793.3125 299.183594 C 793.828125 299.527344 794.359375 299.84375 794.902344 300.136719 C 795.449219 300.425781 796.007812 300.691406 796.582031 300.929688 C 797.152344 301.164062 797.734375 301.375 798.328125 301.554688 C 798.921875 301.734375 799.523438 301.882812 800.128906 302.003906 C 800.734375 302.125 801.347656 302.214844 801.964844 302.277344 C 802.582031 302.335938 803.199219 302.367188 803.816406 302.367188 C 804.4375 302.367188 805.054688 302.335938 805.671875 302.277344 C 806.289062 302.214844 806.898438 302.125 807.507812 302.003906 C 808.113281 301.882812 808.714844 301.734375 809.308594 301.554688 C 809.898438 301.375 810.480469 301.164062 811.054688 300.929688 C 811.625 300.691406 812.1875 300.425781 812.730469 300.136719 C 813.277344 299.84375 813.808594 299.527344 814.324219 299.183594 C 814.839844 298.839844 815.335938 298.46875 815.8125 298.078125 C 816.292969 297.683594 816.75 297.269531 817.1875 296.832031 C 817.628906 296.394531 818.042969 295.9375 818.433594 295.457031 C 818.828125 294.980469 819.195312 294.480469 819.539062 293.96875 C 819.886719 293.453125 820.203125 292.921875 820.496094 292.375 C 820.785156 291.832031 821.050781 291.273438 821.289062 290.699219 C 821.523438 290.128906 821.734375 289.546875 821.914062 288.953125 C 822.09375 288.359375 822.242188 287.761719 822.363281 287.15625 C 822.484375 286.546875 822.574219 285.9375 822.636719 285.320312 C 822.699219 284.703125 822.726562 284.085938 822.726562 283.46875 L 822.726562 275.367188 L 838.9375 275.367188 C 839.46875 275.367188 839.996094 275.394531 840.523438 275.445312 C 841.054688 275.496094 841.578125 275.574219 842.097656 275.679688 C 842.617188 275.78125 843.132812 275.910156 843.640625 276.066406 C 844.148438 276.21875 844.648438 276.398438 845.140625 276.601562 C 845.628906 276.804688 846.109375 277.03125 846.578125 277.28125 C 847.042969 277.53125 847.5 277.800781 847.941406 278.097656 C 848.382812 278.390625 848.808594 278.707031 849.21875 279.042969 C 849.628906 279.382812 850.023438 279.738281 850.398438 280.113281 C 850.773438 280.488281 851.128906 280.878906 851.464844 281.289062 C 851.800781 281.699219 852.117188 282.125 852.414062 282.566406 C 852.707031 283.007812 852.980469 283.460938 853.230469 283.929688 C 853.480469 284.398438 853.707031 284.878906 853.910156 285.367188 C 854.113281 285.859375 854.292969 286.355469 854.445312 286.863281 C 854.601562 287.371094 854.730469 287.886719 854.832031 288.40625 C 854.9375 288.925781 855.015625 289.453125 855.066406 289.980469 C 855.117188 290.507812 855.144531 291.035156 855.144531 291.566406 L 855.144531 329.367188 Z M 806.519531 502.164062 C 806.519531 501.636719 806.546875 501.105469 806.597656 500.578125 C 806.648438 500.050781 806.726562 499.527344 806.832031 499.003906 C 806.933594 498.484375 807.0625 497.96875 807.21875 497.464844 C 807.371094 496.957031 807.550781 496.457031 807.753906 495.964844 C 807.957031 495.476562 808.183594 494.996094 808.433594 494.527344 C 808.683594 494.0625 808.957031 493.605469 809.25 493.164062 C 809.546875 492.722656 809.863281 492.296875 810.199219 491.886719 C 810.535156 491.476562 810.890625 491.085938 811.265625 490.710938 C 811.640625 490.335938 812.035156 489.980469 812.445312 489.644531 C 812.855469 489.304688 813.28125 488.992188 813.722656 488.695312 C 814.164062 488.402344 814.617188 488.128906 815.085938 487.878906 C 815.554688 487.628906 816.035156 487.402344 816.523438 487.199219 C 817.015625 486.996094 817.515625 486.816406 818.023438 486.664062 C 818.53125 486.507812 819.046875 486.378906 819.566406 486.277344 C 820.085938 486.171875 820.609375 486.09375 821.140625 486.042969 C 821.667969 485.992188 822.195312 485.964844 822.726562 485.964844 L 847.511719 485.964844 L 806.519531 526.945312 Z M 838.9375 556.164062 L 601.214844 556.164062 C 600.671875 556.164062 600.132812 556.136719 599.597656 556.082031 C 599.058594 556.027344 598.523438 555.945312 597.996094 555.835938 C 597.464844 555.726562 596.945312 555.59375 596.425781 555.433594 C 595.910156 555.273438 595.40625 555.085938 594.90625 554.878906 C 594.410156 554.667969 593.921875 554.429688 593.449219 554.171875 C 592.976562 553.914062 592.515625 553.628906 592.070312 553.324219 C 591.621094 553.019531 591.191406 552.691406 590.78125 552.34375 C 590.367188 551.996094 589.972656 551.628906 589.59375 551.242188 C 589.21875 550.855469 588.863281 550.449219 588.527344 550.027344 C 588.191406 549.605469 587.875 549.164062 587.582031 548.710938 C 587.289062 548.257812 587.019531 547.789062 586.777344 547.308594 C 586.53125 546.828125 586.308594 546.335938 586.113281 545.832031 C 585.914062 545.328125 585.746094 544.816406 585.597656 544.296875 C 585.453125 543.777344 585.335938 543.25 585.242188 542.71875 C 585.148438 542.183594 585.082031 541.648438 585.042969 541.109375 C 585.003906 540.570312 584.992188 540.03125 585.003906 539.492188 C 587.324219 541.273438 589.867188 542.636719 592.632812 543.585938 C 595.398438 544.535156 598.242188 545.015625 601.167969 545.035156 L 792.09375 545.363281 C 793.875 545.363281 795.640625 545.191406 797.386719 544.84375 C 799.136719 544.5 800.832031 543.984375 802.480469 543.304688 C 804.128906 542.625 805.691406 541.792969 807.175781 540.804688 C 808.660156 539.820312 810.03125 538.695312 811.292969 537.441406 L 855.144531 493.613281 L 855.144531 539.964844 C 855.144531 540.496094 855.117188 541.023438 855.066406 541.554688 C 855.015625 542.082031 854.9375 542.605469 854.832031 543.125 C 854.730469 543.644531 854.601562 544.160156 854.445312 544.667969 C 854.292969 545.175781 854.113281 545.675781 853.910156 546.164062 C 853.707031 546.65625 853.480469 547.132812 853.230469 547.601562 C 852.980469 548.070312 852.707031 548.523438 852.414062 548.964844 C 852.117188 549.40625 851.800781 549.832031 851.464844 550.242188 C 851.128906 550.652344 850.773438 551.046875 850.398438 551.421875 C 850.023438 551.796875 849.628906 552.152344 849.21875 552.488281 C 848.808594 552.824219 848.382812 553.140625 847.941406 553.433594 C 847.5 553.730469 847.042969 554.003906 846.578125 554.253906 C 846.109375 554.503906 845.628906 554.730469 845.140625 554.933594 C 844.648438 555.136719 844.148438 555.3125 843.640625 555.46875 C 843.132812 555.621094 842.617188 555.75 842.097656 555.855469 C 841.578125 555.957031 841.054688 556.035156 840.523438 556.085938 C 839.996094 556.140625 839.46875 556.164062 838.9375 556.164062 Z M 838.9375 556.164062 " fill-opacity="1" fill-rule="nonzero"/></g><g clip-path="url(#e24e8bb5a0)"><path fill="#3d167b" d="M 585.003906 480.566406 C 585.003906 480.921875 584.972656 481.269531 584.902344 481.617188 C 584.832031 481.96875 584.730469 482.304688 584.59375 482.632812 C 584.457031 482.960938 584.292969 483.269531 584.09375 483.566406 C 583.898438 483.859375 583.675781 484.132812 583.421875 484.382812 C 583.171875 484.632812 582.898438 484.859375 582.605469 485.054688 C 582.308594 485.253906 581.996094 485.417969 581.671875 485.554688 C 581.34375 485.691406 581.003906 485.792969 580.65625 485.863281 C 580.308594 485.929688 579.957031 485.964844 579.601562 485.964844 C 579.246094 485.964844 578.898438 485.929688 578.546875 485.863281 C 578.199219 485.792969 577.863281 485.691406 577.535156 485.554688 C 577.207031 485.417969 576.894531 485.253906 576.601562 485.054688 C 576.304688 484.859375 576.035156 484.632812 575.78125 484.382812 C 575.53125 484.132812 575.308594 483.859375 575.109375 483.566406 C 574.914062 483.269531 574.746094 482.960938 574.609375 482.632812 C 574.476562 482.304688 574.371094 481.96875 574.304688 481.617188 C 574.234375 481.269531 574.199219 480.921875 574.199219 480.566406 C 574.199219 480.210938 574.234375 479.859375 574.304688 479.511719 C 574.371094 479.164062 574.476562 478.828125 574.609375 478.5 C 574.746094 478.171875 574.914062 477.859375 575.109375 477.566406 C 575.308594 477.269531 575.53125 476.996094 575.78125 476.746094 C 576.035156 476.496094 576.304688 476.273438 576.601562 476.074219 C 576.894531 475.878906 577.207031 475.710938 577.535156 475.578125 C 577.863281 475.441406 578.199219 475.339844 578.546875 475.269531 C 578.898438 475.199219 579.246094 475.164062 579.601562 475.164062 C 579.957031 475.164062 580.308594 475.199219 580.65625 475.269531 C 581.003906 475.339844 581.34375 475.441406 581.671875 475.578125 C 581.996094 475.710938 582.308594 475.878906 582.605469 476.074219 C 582.898438 476.273438 583.171875 476.496094 583.421875 476.746094 C 583.675781 476.996094 583.898438 477.269531 584.09375 477.566406 C 584.292969 477.859375 584.457031 478.171875 584.59375 478.5 C 584.730469 478.828125 584.832031 479.164062 584.902344 479.511719 C 584.972656 479.859375 585.003906 480.210938 585.003906 480.566406 Z M 585.003906 480.566406 " fill-opacity="1" fill-rule="nonzero"/></g></svg>