<svg xmlns="http://www.w3.org/2000/svg" xmlns:xlink="http://www.w3.org/1999/xlink" width="1022" zoomAndPan="magnify" viewBox="0 0 766.5 272.250005" height="363" preserveAspectRatio="xMidYMid meet" version="1.0"><defs><g/></defs><g fill="#3d167b" fill-opacity="1"><g transform="translate(82.164333, 215.988539)"><g><path d="M 53.898438 -37.085938 L 53.898438 -61.953125 L 2.476562 -61.953125 L 2.476562 0 L 55.847656 0 L 55.847656 -25.933594 L 22.480469 -24.339844 L 22.480469 -28.144531 L 45.667969 -27.261719 L 45.667969 -35.226562 L 22.480469 -34.339844 L 22.480469 -37.96875 Z M 53.898438 -37.085938 "/></g></g></g><g fill="#3d167b" fill-opacity="1"><g transform="translate(139.691848, 215.988539)"><g><path d="M 31.242188 1.328125 C 49.296875 1.328125 60.804688 -5.042969 60.804688 -17.703125 C 60.804688 -39.207031 23.101562 -29.738281 23.101562 -36.023438 C 23.101562 -37.613281 27.082031 -38.324219 32.835938 -38.324219 C 40.976562 -38.324219 49.742188 -36.109375 55.847656 -32.394531 L 58.769531 -57.972656 C 52.394531 -61.15625 39.828125 -63.28125 31.773438 -63.28125 C 14.691406 -63.28125 2.125 -57.972656 2.125 -45.136719 C 2.125 -22.835938 39.5625 -31.417969 39.5625 -25.488281 C 39.5625 -23.984375 36.109375 -23.542969 30.359375 -23.542969 C 19.207031 -23.542969 8.230469 -26.640625 1.769531 -31.949219 L 1.769531 -3.453125 C 9.292969 -0.441406 23.367188 1.328125 31.242188 1.328125 Z M 31.242188 1.328125 "/></g></g></g><g fill="#3d167b" fill-opacity="1"><g transform="translate(202.264084, 215.988539)"><g><path d="M 24.78125 0 L 22.746094 -17.789062 L 34.429688 -17.789062 C 50.183594 -17.789062 60.449219 -25.402344 60.449219 -39.917969 C 60.449219 -54.695312 49.917969 -61.6875 34.515625 -61.953125 L 2.476562 -61.953125 L 2.476562 0 Z M 22.746094 -35.492188 L 33.808594 -35.492188 C 37.085938 -35.492188 40.003906 -34.871094 40.003906 -32.039062 C 40.003906 -29.648438 37.792969 -28.585938 33.722656 -28.585938 L 22.746094 -28.585938 Z M 22.746094 -35.492188 "/></g></g></g><g fill="#3d167b" fill-opacity="1"><g transform="translate(263.862772, 215.988539)"><g><path d="M 53.898438 -37.085938 L 53.898438 -61.953125 L 2.476562 -61.953125 L 2.476562 0 L 55.847656 0 L 55.847656 -25.933594 L 22.480469 -24.339844 L 22.480469 -28.144531 L 45.667969 -27.261719 L 45.667969 -35.226562 L 22.480469 -34.339844 L 22.480469 -37.96875 Z M 53.898438 -37.085938 "/></g></g></g><g fill="#3d167b" fill-opacity="1"><g transform="translate(321.390287, 215.988539)"><g><path d="M 28.941406 -24.25 C 36.996094 -24.25 38.058594 -11.769531 35.3125 0 L 60.714844 0 C 62.398438 -15.84375 55.316406 -26.640625 40.890625 -26.640625 L 35.402344 -26.640625 L 35.402344 -27.703125 C 52.21875 -27.703125 60.539062 -34.074219 60.539062 -43.457031 C 60.539062 -57.175781 49.742188 -61.6875 34.515625 -61.953125 L 2.476562 -61.953125 L 2.476562 0 L 25.046875 0 L 22.65625 -24.25 Z M 33.277344 -36.730469 C 37.171875 -36.730469 40.003906 -35.933594 40.003906 -33.632812 C 40.003906 -31.597656 37.261719 -30.625 33.191406 -30.625 L 22.65625 -30.625 L 22.65625 -36.730469 Z M 33.277344 -36.730469 "/></g></g></g><g fill="#3d167b" fill-opacity="1"><g transform="translate(383.697019, 215.988539)"><g><path d="M 28.5 -12.746094 L 36.820312 -12.746094 L 38.5 0 L 66.203125 0 L 45.136719 -61.953125 L 20.003906 -61.953125 L -1.0625 0 L 26.816406 0 Z M 33.367188 -38.675781 L 35.492188 -19.472656 L 29.648438 -19.472656 L 31.863281 -38.675781 Z M 33.367188 -38.675781 "/></g></g></g><g fill="#3d167b" fill-opacity="1"><g transform="translate(448.83585, 215.988539)"><g><path d="M 63.636719 0 L 63.636719 -61.953125 L 38.5 -61.953125 L 43.101562 -34.871094 L 41.773438 -34.515625 L 21.859375 -61.953125 L 2.476562 -61.953125 L 2.476562 0 L 28.765625 0 L 23.101562 -34.164062 L 24.25 -34.515625 L 44.785156 0 Z M 63.636719 0 "/></g></g></g><g fill="#3d167b" fill-opacity="1"><g transform="translate(514.94823, 215.988539)"><g><path d="M 37.261719 1.328125 C 45.136719 1.328125 53.898438 0.0898438 59.121094 -1.503906 L 58.945312 -30.800781 C 54.519531 -28.144531 46.378906 -26.109375 38.765625 -26.109375 C 28.941406 -26.109375 21.773438 -26.816406 21.773438 -31.066406 C 21.773438 -34.871094 27.96875 -35.933594 37.4375 -35.933594 C 44.519531 -35.933594 52.042969 -34.164062 56.203125 -31.773438 L 57.792969 -60.625 C 53.105469 -61.953125 45.847656 -63.28125 37.4375 -63.28125 C 16.460938 -63.28125 1.59375 -53.8125 1.59375 -30.890625 C 1.59375 -11.59375 12.300781 -1.769531 28.320312 0.707031 L 25.402344 6.816406 L 28.5 10 C 32.394531 9.117188 34.78125 10.355469 34.78125 12.390625 C 34.871094 14.25 32.660156 14.957031 30.535156 14.957031 C 28.144531 14.957031 24.691406 14.074219 22.304688 12.746094 L 20.179688 19.027344 C 22.570312 20.535156 26.550781 21.683594 31.152344 21.683594 C 38.410156 21.683594 44.695312 18.941406 44.695312 12.300781 C 44.695312 7.167969 39.917969 4.425781 35.136719 4.957031 Z M 37.261719 1.328125 "/></g></g></g><g fill="#3d167b" fill-opacity="1"><g transform="translate(576.546899, 215.988539)"><g><path d="M 28.5 -12.746094 L 36.820312 -12.746094 L 38.5 0 L 66.203125 0 L 45.136719 -61.953125 L 20.003906 -61.953125 L -1.0625 0 L 26.816406 0 Z M 33.367188 -38.675781 L 35.492188 -19.472656 L 29.648438 -19.472656 L 31.863281 -38.675781 Z M 33.367188 -38.675781 "/></g></g></g><g fill="#3d167b" fill-opacity="1"><g transform="translate(641.68573, 215.988539)"><g><path d="M 28.941406 -24.25 C 36.996094 -24.25 38.058594 -11.769531 35.3125 0 L 60.714844 0 C 62.398438 -15.84375 55.316406 -26.640625 40.890625 -26.640625 L 35.402344 -26.640625 L 35.402344 -27.703125 C 52.21875 -27.703125 60.539062 -34.074219 60.539062 -43.457031 C 60.539062 -57.175781 49.742188 -61.6875 34.515625 -61.953125 L 2.476562 -61.953125 L 2.476562 0 L 25.046875 0 L 22.65625 -24.25 Z M 33.277344 -36.730469 C 37.171875 -36.730469 40.003906 -35.933594 40.003906 -33.632812 C 40.003906 -31.597656 37.261719 -30.625 33.191406 -30.625 L 22.65625 -30.625 L 22.65625 -36.730469 Z M 33.277344 -36.730469 "/></g></g></g><g fill="#d84423" fill-opacity="1"><g transform="translate(242.794092, 103.025826)"><g><path d="M 35.761719 0 C 37.851562 0 39.632812 -1.78125 39.632812 -3.871094 L 39.632812 -49.234375 C 39.632812 -51.089844 38.242188 -52.714844 36.304688 -53.027344 C 34.449219 -53.335938 32.667969 -52.25 32.046875 -50.394531 L 20.976562 -16.410156 L 9.910156 -50.394531 C 9.289062 -52.25 7.507812 -53.335938 5.574219 -53.027344 C 3.714844 -52.714844 2.324219 -51.089844 2.324219 -49.234375 L 2.324219 -3.871094 C 2.324219 -1.78125 4.101562 0 6.191406 0 C 8.359375 0 10.0625 -1.78125 10.0625 -3.871094 L 10.0625 -24.847656 L 17.261719 -2.710938 C 17.804688 -1.082031 19.199219 0 20.976562 0 C 22.757812 0 24.074219 -1.082031 24.617188 -2.710938 L 31.894531 -24.847656 L 31.894531 -3.871094 C 31.894531 -1.78125 33.597656 0 35.761719 0 Z M 35.761719 0 "/></g></g></g><g fill="#d84423" fill-opacity="1"><g transform="translate(284.746955, 103.025826)"><g><path d="M 13.625 0 C 19.351562 0 24.539062 -4.566406 24.925781 -10.527344 L 24.925781 -42.652344 C 24.539062 -48.226562 19.507812 -53.101562 13.625 -53.101562 C 8.050781 -53.101562 2.710938 -48.535156 2.324219 -42.652344 L 2.324219 -10.527344 C 2.710938 -4.722656 7.585938 -0.230469 13.625 0 Z M 10.0625 -41.957031 C 10.140625 -43.890625 11.6875 -45.363281 13.625 -45.363281 C 15.558594 -45.363281 17.109375 -43.890625 17.183594 -41.957031 L 17.183594 -11.148438 C 17.109375 -9.289062 15.558594 -7.742188 13.625 -7.742188 C 11.6875 -7.742188 10.140625 -9.289062 10.0625 -11.148438 Z M 10.0625 -41.957031 "/></g></g></g><g fill="#d84423" fill-opacity="1"><g transform="translate(311.993098, 103.025826)"><g><path d="M 15.792969 0 C 17.648438 0 19.199219 -1.316406 19.585938 -3.097656 L 29.183594 -48.382812 C 29.570312 -50.472656 28.253906 -52.484375 26.164062 -53.027344 C 24.074219 -53.414062 21.984375 -52.097656 21.597656 -50.007812 L 15.792969 -22.605469 L 9.984375 -50.007812 C 9.597656 -52.097656 7.507812 -53.414062 5.417969 -53.027344 C 3.328125 -52.484375 2.011719 -50.472656 2.398438 -48.382812 L 12 -3.097656 C 12.386719 -1.316406 13.933594 0 15.792969 0 Z M 15.792969 0 "/></g></g></g><g fill="#d84423" fill-opacity="1"><g transform="translate(343.573853, 103.025826)"><g><path d="M 6.191406 0 C 8.359375 0 10.0625 -1.78125 10.0625 -3.871094 L 10.0625 -49.234375 C 10.0625 -51.324219 8.359375 -53.101562 6.191406 -53.101562 C 4.023438 -53.101562 2.324219 -51.324219 2.324219 -49.234375 L 2.324219 -3.871094 C 2.324219 -1.78125 4.023438 0 6.191406 0 Z M 6.191406 0 "/></g></g></g><g fill="#d84423" fill-opacity="1"><g transform="translate(355.958467, 103.025826)"><g><path d="M 35.761719 0 C 37.851562 0 39.632812 -1.78125 39.632812 -3.871094 L 39.632812 -49.234375 C 39.632812 -51.089844 38.242188 -52.714844 36.304688 -53.027344 C 34.449219 -53.335938 32.667969 -52.25 32.046875 -50.394531 L 20.976562 -16.410156 L 9.910156 -50.394531 C 9.289062 -52.25 7.507812 -53.335938 5.574219 -53.027344 C 3.714844 -52.714844 2.324219 -51.089844 2.324219 -49.234375 L 2.324219 -3.871094 C 2.324219 -1.78125 4.101562 0 6.191406 0 C 8.359375 0 10.0625 -1.78125 10.0625 -3.871094 L 10.0625 -24.847656 L 17.261719 -2.710938 C 17.804688 -1.082031 19.199219 0 20.976562 0 C 22.757812 0 24.074219 -1.082031 24.617188 -2.710938 L 31.894531 -24.847656 L 31.894531 -3.871094 C 31.894531 -1.78125 33.597656 0 35.761719 0 Z M 35.761719 0 "/></g></g></g><g fill="#d84423" fill-opacity="1"><g transform="translate(397.91133, 103.025826)"><g><path d="M 19.199219 -45.363281 C 21.363281 -45.363281 23.066406 -47.066406 23.066406 -49.234375 C 23.066406 -51.324219 21.363281 -53.101562 19.199219 -53.101562 L 6.191406 -53.101562 C 4.023438 -53.101562 2.324219 -51.324219 2.324219 -49.234375 L 2.324219 -3.871094 C 2.324219 -1.78125 4.023438 0 6.191406 0 L 19.199219 0 C 21.363281 0 23.066406 -1.78125 23.066406 -3.871094 C 23.066406 -6.039062 21.363281 -7.742188 19.199219 -7.742188 L 10.0625 -7.742188 L 10.0625 -22.679688 L 16.179688 -22.679688 C 18.347656 -22.679688 20.050781 -24.382812 20.050781 -26.550781 C 20.050781 -28.71875 18.347656 -30.421875 16.179688 -30.421875 L 10.0625 -30.421875 L 10.0625 -45.363281 Z M 19.199219 -45.363281 "/></g></g></g><g fill="#d84423" fill-opacity="1"><g transform="translate(423.299778, 103.025826)"><g><path d="M 21.132812 -53.101562 C 18.964844 -53.101562 17.261719 -51.324219 17.261719 -49.234375 L 17.261719 -28.023438 L 9.910156 -50.394531 C 9.289062 -52.25 7.507812 -53.335938 5.574219 -53.027344 C 3.714844 -52.714844 2.324219 -51.089844 2.324219 -49.234375 L 2.324219 -3.871094 C 2.324219 -1.78125 4.101562 0 6.191406 0 C 8.359375 0 10.0625 -1.78125 10.0625 -3.871094 L 10.0625 -25.082031 L 17.417969 -2.710938 C 17.960938 -1.082031 19.507812 0 21.132812 0 C 23.222656 0 25.003906 -1.78125 25.003906 -3.871094 L 25.003906 -49.234375 C 25.003906 -51.324219 23.300781 -53.101562 21.132812 -53.101562 Z M 21.132812 -53.101562 "/></g></g></g><g fill="#d84423" fill-opacity="1"><g transform="translate(450.623315, 103.025826)"><g><path d="M 6.191406 -53.101562 C 4.101562 -53.101562 2.324219 -51.324219 2.324219 -49.234375 C 2.324219 -47.066406 4.101562 -45.363281 6.191406 -45.363281 L 11.070312 -45.363281 L 11.070312 -3.871094 C 11.070312 -1.78125 12.773438 0 14.941406 0 C 17.109375 0 18.8125 -1.78125 18.8125 -3.871094 L 18.8125 -45.363281 L 23.6875 -45.363281 C 25.777344 -45.363281 27.558594 -47.066406 27.558594 -49.234375 C 27.558594 -51.324219 25.777344 -53.101562 23.6875 -53.101562 Z M 6.191406 -53.101562 "/></g></g></g><g fill="#d84423" fill-opacity="1"><g transform="translate(480.501185, 103.025826)"><g><path d="M 13.625 0 C 19.351562 0 24.539062 -4.566406 24.925781 -10.527344 L 24.925781 -42.652344 C 24.539062 -48.226562 19.507812 -53.101562 13.625 -53.101562 C 8.050781 -53.101562 2.710938 -48.535156 2.324219 -42.652344 L 2.324219 -10.527344 C 2.710938 -4.722656 7.585938 -0.230469 13.625 0 Z M 10.0625 -41.957031 C 10.140625 -43.890625 11.6875 -45.363281 13.625 -45.363281 C 15.558594 -45.363281 17.109375 -43.890625 17.183594 -41.957031 L 17.183594 -11.148438 C 17.109375 -9.289062 15.558594 -7.742188 13.625 -7.742188 C 11.6875 -7.742188 10.140625 -9.289062 10.0625 -11.148438 Z M 10.0625 -41.957031 "/></g></g></g></svg>