<svg xmlns="http://www.w3.org/2000/svg" xmlns:xlink="http://www.w3.org/1999/xlink" width="1920" zoomAndPan="magnify" viewBox="0 0 1440 809.999993" height="1080" preserveAspectRatio="xMidYMid meet" version="1.0"><path fill="#3d167b" d="M 684.078125 326.761719 L 755.566406 326.761719 C 754.699219 330.503906 756.207031 334.359375 759.332031 336.539062 C 803.214844 366.964844 832.300781 414.402344 839.558594 467.347656 C 843.242188 494.28125 829.316406 520.597656 804.972656 532.667969 C 751.324219 559.324219 688.320312 559.324219 634.695312 532.667969 C 610.328125 520.597656 596.425781 494.28125 600.113281 467.347656 C 607.367188 414.402344 636.457031 366.964844 680.335938 336.539062 C 683.464844 334.359375 684.941406 330.503906 684.078125 326.761719 Z M 731.476562 250.207031 C 732.453125 250.179688 733.429688 250.433594 734.292969 250.960938 L 747.023438 259.007812 C 751.460938 261.804688 756.960938 262.277344 761.816406 260.320312 L 775.46875 254.761719 C 781.722656 253.335938 788.226562 255.683594 792.132812 260.796875 C 771.753906 270.714844 755.789062 287.871094 747.359375 308.90625 C 746.660156 310.695312 746.519531 312.652344 746.941406 314.496094 L 687.59375 314.496094 C 688.238281 311.730469 687.59375 308.824219 685.835938 306.589844 C 675.003906 292.953125 661.214844 281.972656 645.472656 274.488281 L 658.3125 263.144531 C 658.621094 262.863281 659.039062 262.78125 659.402344 262.863281 L 666.546875 264.792969 C 670.875 265.964844 675.507812 265.265625 679.277344 262.863281 L 693.371094 254.035156 L 703.535156 258.394531 C 708.390625 260.488281 713.972656 260.097656 718.523438 257.359375 L 729.1875 250.90625 C 729.855469 250.488281 730.664062 250.234375 731.476562 250.207031 Z M 731.222656 243.027344 C 729.1875 243.113281 727.203125 243.699219 725.445312 244.761719 L 714.78125 251.214844 C 712.242188 252.75 709.117188 252.972656 706.378906 251.800781 L 695.96875 247.332031 C 693.957031 246.4375 691.640625 246.632812 689.773438 247.804688 L 675.453125 256.773438 C 673.359375 258.113281 670.816406 258.476562 668.417969 257.835938 L 661.269531 255.9375 C 658.5625 255.210938 655.660156 255.878906 653.566406 257.75 L 637.292969 272.140625 C 635.535156 273.675781 635.367188 276.359375 636.902344 278.117188 C 637.320312 278.59375 637.851562 278.957031 638.4375 279.207031 C 654.765625 286.164062 669.144531 297.117188 680.167969 311.058594 C 680.921875 311.980469 680.753906 313.292969 679.835938 314.046875 C 679.472656 314.328125 678.996094 314.496094 678.523438 314.496094 L 672.214844 314.496094 C 668.835938 314.496094 666.101562 317.234375 666.101562 320.640625 C 666.101562 324.023438 668.835938 326.761719 672.214844 326.761719 L 675.03125 326.761719 C 676.175781 326.761719 677.125 327.710938 677.125 328.882812 C 677.125 329.582031 676.792969 330.226562 676.234375 330.617188 C 630.707031 362.1875 600.503906 411.441406 592.992188 466.34375 C 588.863281 496.375 604.382812 525.65625 631.488281 539.121094 C 687.148438 566.753906 752.523438 566.753906 808.183594 539.121094 C 835.289062 525.65625 850.78125 496.375 846.675781 466.34375 C 839.167969 411.441406 808.964844 362.1875 763.4375 330.617188 C 762.460938 329.972656 762.238281 328.632812 762.878906 327.683594 C 763.296875 327.125 763.941406 326.761719 764.636719 326.761719 L 767.429688 326.761719 C 770.804688 326.761719 773.570312 324.023438 773.570312 320.640625 C 773.570312 317.234375 770.804688 314.496094 767.429688 314.496094 L 756.011719 314.496094 C 754.839844 314.496094 753.890625 313.546875 753.890625 312.371094 C 753.890625 312.09375 753.945312 311.839844 754.058594 311.589844 C 762.210938 291.195312 778.007812 274.792969 798.105469 265.9375 C 800.257812 264.988281 801.207031 262.5 800.257812 260.351562 C 800.226562 260.292969 800.199219 260.238281 800.171875 260.183594 C 795.230469 250.234375 783.980469 245.125 773.234375 247.890625 L 759.109375 253.644531 C 756.402344 254.734375 753.332031 254.453125 750.847656 252.917969 L 738.117188 244.871094 C 736.054688 243.585938 733.652344 242.945312 731.222656 243.027344 " fill-opacity="1" fill-rule="nonzero"/><path fill="#3d167b" d="M 709.03125 377.859375 C 690.554688 384.816406 681.203125 405.464844 688.152344 423.960938 C 691.222656 432.144531 697.167969 438.90625 704.875 442.984375 L 724.945312 453.628906 C 730.304688 456.453125 732.339844 463.101562 729.492188 468.4375 C 726.675781 473.800781 720.03125 475.839844 714.699219 472.992188 C 711.125 471.09375 708.894531 467.375 708.894531 463.324219 L 684.050781 463.324219 C 684.050781 478.914062 694.152344 492.746094 709.03125 497.4375 L 709.03125 512.46875 L 734.238281 512.46875 L 734.238281 496.097656 C 752.328125 488.105469 760.535156 466.984375 752.578125 448.878906 C 749.3125 441.503906 743.703125 435.441406 736.582031 431.671875 L 717.128906 421.332031 C 711.628906 418.847656 709.171875 412.335938 711.65625 406.832031 C 714.167969 401.328125 720.644531 398.871094 726.144531 401.382812 C 730.078125 403.144531 732.59375 407.054688 732.59375 411.359375 L 757.40625 411.359375 C 757.40625 396.441406 748.167969 383.085938 734.238281 377.832031 L 734.238281 362.214844 L 709.03125 362.214844 L 709.03125 377.859375 " fill-opacity="1" fill-rule="nonzero"/></svg>