<svg xmlns="http://www.w3.org/2000/svg" xmlns:xlink="http://www.w3.org/1999/xlink" width="1920" zoomAndPan="magnify" viewBox="0 0 1440 809.999993" height="1080" preserveAspectRatio="xMidYMid meet" version="1.0"><defs><clipPath id="6510d9a093"><path d="M 559.621094 243 L 880.621094 243 L 880.621094 567 L 559.621094 567 Z M 559.621094 243 " clip-rule="nonzero"/></clipPath></defs><g clip-path="url(#6510d9a093)"><path fill="#3d167b" d="M 869.515625 506.324219 L 777.328125 552.285156 L 777.328125 433.445312 C 784.308594 424.519531 817.234375 381.484375 833.140625 345.675781 L 869.515625 327.535156 Z M 674.023438 506.324219 L 674.023438 327.535156 L 710.40625 345.675781 C 726.316406 381.5 759.257812 424.554688 766.214844 433.457031 L 766.214844 552.285156 Z M 570.722656 373.5 L 662.910156 327.535156 L 662.910156 506.324219 L 570.722656 552.285156 Z M 771.765625 254.382812 C 804.265625 254.382812 830.710938 281.207031 830.710938 314.171875 C 830.710938 340.105469 791.53125 396.59375 771.765625 422.390625 C 752.003906 396.59375 712.832031 340.121094 712.832031 314.171875 C 712.832031 281.207031 739.273438 254.382812 771.765625 254.382812 Z M 878.007812 313.699219 C 876.382812 312.667969 874.34375 312.566406 872.621094 313.425781 L 839.078125 330.148438 C 840.824219 324.316406 841.824219 318.914062 841.824219 314.171875 C 841.824219 274.988281 810.398438 243.105469 771.765625 243.105469 C 733.148438 243.105469 701.722656 274.988281 701.722656 314.171875 C 701.722656 318.914062 702.722656 324.316406 704.472656 330.148438 L 670.917969 313.425781 C 670.570312 313.25 670.179688 313.289062 669.808594 313.191406 C 669.355469 313.074219 668.933594 312.910156 668.46875 312.910156 C 668 312.910156 667.582031 313.074219 667.128906 313.191406 C 666.757812 313.289062 666.367188 313.25 666.015625 313.425781 L 562.714844 364.925781 C 560.816406 365.871094 559.609375 367.835938 559.609375 369.984375 L 559.609375 561.335938 C 559.609375 563.28125 560.597656 565.089844 562.230469 566.121094 C 563.125 566.6875 564.148438 566.976562 565.167969 566.976562 C 566.003906 566.976562 566.84375 566.777344 567.621094 566.398438 L 668.46875 516.117188 L 769.320312 566.398438 C 770.097656 566.777344 770.933594 566.976562 771.773438 566.976562 C 772.609375 566.976562 773.449219 566.777344 774.226562 566.398438 L 877.527344 514.894531 C 879.425781 513.949219 880.628906 511.980469 880.628906 509.835938 L 880.628906 318.484375 C 880.628906 316.535156 879.640625 314.730469 878.007812 313.699219 " fill-opacity="1" fill-rule="nonzero"/></g><path fill="#3d167b" d="M 771.761719 312.847656 C 762.851562 312.847656 755.601562 305.484375 755.601562 296.4375 C 755.601562 287.398438 762.851562 280.042969 771.761719 280.042969 C 780.679688 280.042969 787.933594 287.398438 787.933594 296.4375 C 787.933594 305.484375 780.679688 312.847656 771.761719 312.847656 Z M 799.046875 296.4375 C 799.046875 281.183594 786.804688 268.769531 771.761719 268.769531 C 756.726562 268.769531 744.488281 281.183594 744.488281 296.4375 C 744.488281 311.703125 756.726562 324.125 771.761719 324.125 C 786.804688 324.125 799.046875 311.703125 799.046875 296.4375 " fill-opacity="1" fill-rule="nonzero"/></svg>